<svg xmlns="http://www.w3.org/2000/svg" viewBox="0 0 841.89 595.28"><defs><style>.cls-1{fill:#fff;}.cls-2{font-size:14.17px;font-family:Mplus1p-Regular, "Mplus 1p";}.cls-2,.cls-20,.cls-5{fill:#231815;}.cls-3{letter-spacing:-0.5em;}.cls-4{fill:#b5b5b6;}.cls-6{letter-spacing:-0.05em;}.cls-7{letter-spacing:-0.02em;}.cls-8{letter-spacing:-0.01em;}.cls-9{letter-spacing:-0.01em;}.cls-10{letter-spacing:-0.5em;}.cls-11{fill:#9fa0a0;}.cls-12,.cls-18{fill:none;stroke-miterlimit:10;stroke-width:2.83px;}.cls-12{stroke:#231815;}.cls-13{letter-spacing:0.25em;}.cls-14{letter-spacing:-0.5em;}.cls-15{fill:#c4db6d;}.cls-16{fill:#bcd36d;}.cls-17{letter-spacing:0.25em;}.cls-18{stroke:#af3323;}.cls-19{fill:#af3323;}.cls-20{font-size:36.14px;font-family:Mplus1p-ExtraBold, "Mplus 1p";font-weight:800;}.cls-21{fill:#00a0e9;}</style></defs><g id="レイヤー_2" data-name="レイヤー 2"><g id="ssg"><rect class="cls-1" width="841.89" height="595.28"/><text class="cls-2" transform="translate(197.4 128.38)">コンテンツ記事入力<tspan x="28.35" y="24.8">（管理者</tspan><tspan class="cls-3" x="85.04" y="24.8">）</tspan></text><rect class="cls-4" x="181.48" y="98.73" width="159.78" height="73.8"/><path class="cls-5" d="M199.48,118.51h9.93v9.55h-9.93v-1h8.83V119.5h-8.83Z"/><path class="cls-5" d="M213.66,119l.51-1q2.27,1.14,4.34,2.41l-.56,1Q216,120.2,213.66,119Zm11,.55q-1.43,8.16-10.47,9l-.17-1.07a11.55,11.55,0,0,0,6.53-2.38,9.55,9.55,0,0,0,3.08-5.74Z"/><path class="cls-5" d="M226.88,121.91h11.91v1h-4.86a5.53,5.53,0,0,1-4.71,6.09l-.31-1a4.56,4.56,0,0,0,3.88-5.12h-5.91Zm1.6-2.84v-1h8.71v1Z"/><path class="cls-5" d="M242,119l.52-1q2.26,1.14,4.33,2.41l-.55,1C245,120.61,243.56,119.81,242,119Zm11,.55q-1.43,8.16-10.47,9l-.17-1.07a11.48,11.48,0,0,0,6.52-2.38,9.56,9.56,0,0,0,3.09-5.74Z"/><path class="cls-5" d="M255.64,118.87l1.05-.25c.42,1.4.85,3,1.27,4.7l-1.07.25C256.46,121.81,256.05,120.24,255.64,118.87Zm11.11-.66a15.85,15.85,0,0,1-1,5.66,7,7,0,0,1-2.78,3.31,13.15,13.15,0,0,1-5.05,1.63l-.2-1a15.49,15.49,0,0,0,3.67-1,6.4,6.4,0,0,0,2.4-1.78,7.06,7.06,0,0,0,1.4-2.79,19.12,19.12,0,0,0,.51-4.11Zm-7.21.14,1.07-.24c.43,1.49.85,3.13,1.28,4.92l-1.08.22C260.38,121.46,260,119.82,259.54,118.35Z"/><path class="cls-5" d="M269.08,120.33v-1h5.38v1Zm.39-2v-.92H274v.92Zm1,10.74v.63h-1v-4.24H274v3.61Zm-.94-6.73v-.89H274v.89Zm0,2v-.91H274v.91Zm.94,3.82H273v-1.81h-2.53Zm9.59-4.29V123h-4v4.1a3.08,3.08,0,0,0,.09,1c.06.11.26.18.59.21s.85.06,1.29.06,1,0,1.43-.06.76-.18.85-.43a12.75,12.75,0,0,0,.28-2.53l1.12.1c0,.65-.07,1.15-.1,1.49a8.18,8.18,0,0,1-.15,1,3.67,3.67,0,0,1-.2.68,1.16,1.16,0,0,1-.34.37,1.14,1.14,0,0,1-.5.21l-.72.08c-.69,0-1.3.07-1.82.07s-1,0-1.64-.07a3.82,3.82,0,0,1-.61-.1,1.94,1.94,0,0,1-.36-.15.5.5,0,0,1-.22-.36,5.07,5.07,0,0,1-.08-.58c0-.21,0-.53,0-1V122h5.1v-3.48h-5.27v-1h6.36v6.31Z"/><path class="cls-5" d="M295.91,124.67v.88h-1v2.65h-1.09v-.77h-3.7v.67c0,.63-.1,1-.29,1.17a3.16,3.16,0,0,1-1.54.22c-.41,0-1.1,0-2.05-.07v-.89c.85,0,1.5.07,1.95.07a2.37,2.37,0,0,0,.66,0c.06,0,.09-.16.09-.38v-.74h-5.17v-.82h5.17v-1.06h-5.78v-.88h5.78v-1h-5.17v-.85h5.17V122h-4.6v-2.7h4.6v-.78h-5.64v-.88h5.64v-1h1.19v1h5.64v.88h-5.64v.78h4.61V122h-4.61v.77h4.79v1.86Zm-10.49-3.41h3.51v-1.1h-3.51Zm4.7,0h3.52v-1.1h-3.52Zm0,3.41h3.7v-1h-3.7Zm0,1.94h3.7v-1.06h-3.7Z"/><path class="cls-5" d="M303.53,118.46h-3.88v-1h5v1.32a12.26,12.26,0,0,0,1.47,5.93,9.12,9.12,0,0,0,3.84,3.93l-.58.85a8.65,8.65,0,0,1-3.25-2.84,13.46,13.46,0,0,1-2.07-4.43,13.17,13.17,0,0,1-2.41,4.34A10.74,10.74,0,0,1,298,129.5l-.58-.85a11,11,0,0,0,4.37-4,10.07,10.07,0,0,0,1.74-5.46Z"/><path class="cls-5" d="M316.22,116.75h1.13c0,.79,0,1.54,0,2.25h5.95c0,1.54,0,2.84-.05,3.9s-.09,2-.18,2.74a13.55,13.55,0,0,1-.29,1.8,2.67,2.67,0,0,1-.49,1,1.39,1.39,0,0,1-.64.48,2.6,2.6,0,0,1-.86.11q-1.2,0-2.82-.15v-1c1.06.11,1.91.17,2.57.17a1,1,0,0,0,.71-.25,2.36,2.36,0,0,0,.49-1.06,12.25,12.25,0,0,0,.32-2.43c.06-1.08.1-2.51.11-4.3h-4.88a15.71,15.71,0,0,1-1.23,5.64,10.18,10.18,0,0,1-3.12,3.7l-.75-.83a10.68,10.68,0,0,0,2.06-2,8.14,8.14,0,0,0,1.26-2.61,17.34,17.34,0,0,0,.65-3.89h-3.91v-1h4Q316.22,117.62,316.22,116.75Z"/><path class="cls-5" d="M234.93,151.64a8.37,8.37,0,0,1,0-7.1,8.43,8.43,0,0,1,2.27-2.9h1.09a8.3,8.3,0,0,0,0,12.89H237.2A8.49,8.49,0,0,1,234.93,151.64Z"/><path class="cls-5" d="M240.5,144.34a8,8,0,0,0,2.26-3l1,.24a6.89,6.89,0,0,1-.41.87h3.77v.93h-2.38c.18.44.36.92.55,1.43l-1,.31c-.26-.72-.49-1.3-.68-1.74h-.82a9,9,0,0,1-1.56,1.68Zm6.24-.46a7,7,0,0,0,2.31-2.55l1,.24a5.15,5.15,0,0,1-.48.87h3.75v.93h-2.52c.18.44.36.92.55,1.43l-1,.31c-.36-1-.58-1.54-.67-1.74h-.81a7.47,7.47,0,0,1-1.26,1.14v.84h5.55v2.78h-1.08v-1.92H242v1.92h-1.08v-2.78h5.6v-.92h.81Zm-2.82,9.92v.62H242.8v-7.5h8.36v2.94h-7.24v.8H252v3.76h-1.11v-.62Zm0-4.79h6.14V147.8h-6.14Zm0,3.94h6.94v-1.42h-6.94Z"/><path class="cls-5" d="M258.56,150.74l.14.93a36.35,36.35,0,0,1-4,1.46l-.14-.95,1.54-.49v-4h-1.35v-1h1.35v-3.25h-1.49v-1h3.87v1h-1.29v3.25h1.22v1h-1.22v3.56Zm5.06-2.23v1.7h3.76v.88h-3.76V153h4v.92h-9.44V153h4.37v-1.93H259v-.88h3.55v-1.7H259v-6.42h8.1v6.42Zm-3.53-3.66h2.44V143h-2.44Zm2.44,2.78v-1.95h-2.44v1.95Zm1.09-2.78h2.45V143h-2.45Zm0,2.78h2.45v-1.95h-2.45Z"/><path class="cls-5" d="M274.49,148h6v6.35h-1.11v-.61H272.7v.61h-1.1v-5a24.89,24.89,0,0,1-2.42.88l-.34-1a27.24,27.24,0,0,0,6.17-2.68h-6.13v-.92h5.38v-1.86h-4.05v-.91h4.05v-1.34h1.14v1.34h3.5v.76a15.79,15.79,0,0,0,1.46-1.63l.82.59a18.12,18.12,0,0,1-3.12,3.05h3.77v.92h-5A25.14,25.14,0,0,1,274.49,148Zm-1.79,2.41h6.72v-1.49H272.7Zm0,.87v1.56h6.72v-1.56Zm6-7.46H275.4v1.86h1.05A21.62,21.62,0,0,0,278.74,143.79Z"/><path class="cls-5" d="M287.44,144.54a8.47,8.47,0,0,1,0,7.1,8.65,8.65,0,0,1-2.28,2.89h-1.09a8.28,8.28,0,0,0,0-12.89h1.09A8.58,8.58,0,0,1,287.44,144.54Z"/><text class="cls-2" transform="translate(526.62 128.38)">データベース<tspan x="-21.26" y="24.8">（ロリポップなど</tspan><tspan class="cls-3" x="92.13" y="24.8">）</tspan></text><rect class="cls-4" x="495.75" y="98.35" width="146.78" height="74.18"/><path class="cls-5" d="M527.61,122.05h11.9v1h-4.86a5.55,5.55,0,0,1-4.7,6.1l-.31-1a4.58,4.58,0,0,0,3.88-5.12h-5.91Zm1.6-2.84v-1h7.51v1Zm7.46-2.21.77-.41c.39.64.79,1.34,1.2,2.11l-.78.4C537.52,118.45,537.12,117.75,536.67,117Zm1.91-.22.79-.43c.38.63.79,1.36,1.22,2.17l-.79.4C539.38,118.13,539,117.42,538.58,116.78Z"/><path class="cls-5" d="M542.11,123.82v-1.08h11.54v1.08Z"/><path class="cls-5" d="M557.61,128.91l-.15-1a14.27,14.27,0,0,0,4.38-1,6.1,6.1,0,0,0,2.66-2.2c-1.57-.81-3.14-1.56-4.73-2.25l.49-1q2.31,1,4.77,2.25a11.26,11.26,0,0,0,.79-4.15H560a10.06,10.06,0,0,1-2.78,4.39l-.73-.68a9.21,9.21,0,0,0,2-2.72,10.41,10.41,0,0,0,1-3.36l1,.06q0,.48-.21,1.32H567V119c0,3.18-.75,5.56-2.24,7.12S560.86,128.64,557.61,128.91Z"/><path class="cls-5" d="M570.54,126.39l-.86-.67,1.07-1.34c.4-.51.79-1,1.16-1.51l.69-.88a20.55,20.55,0,0,1,1.55-2,1.27,1.27,0,0,1,.91-.38,1.55,1.55,0,0,1,1,.34,21.47,21.47,0,0,1,1.76,1.77q2.37,2.56,4.94,5.15l-.8.82c-1.64-1.65-3.29-3.38-4.94-5.17-.66-.72-1.12-1.19-1.36-1.41a1,1,0,0,0-.6-.34c-.11,0-.27.12-.46.34s-.49.61-.89,1.14l-.17.24Q571.77,124.88,570.54,126.39Zm7.16-8,.92-.48c.52.85,1,1.69,1.44,2.54l-.92.45C578.8,120.22,578.32,119.38,577.7,118.35Zm2.09-.61.93-.48c.52.86,1,1.72,1.48,2.58l-.93.45C580.87,119.55,580.38,118.7,579.79,117.74Z"/><path class="cls-5" d="M584.63,123.82v-1.08h11.53v1.08Z"/><path class="cls-5" d="M600.18,119.24v-1H609v1a15.05,15.05,0,0,1-3.06,4.64q2.05,1.89,4.23,4.16l-.77.74q-2.07-2.18-4.19-4.17a23.39,23.39,0,0,1-5.73,4l-.48-.91a23.13,23.13,0,0,0,5.44-3.82,15,15,0,0,0,3.37-4.64Z"/><path class="cls-5" d="M514.53,151.64a8.47,8.47,0,0,1,0-7.1,8.58,8.58,0,0,1,2.28-2.9h1.09a8.28,8.28,0,0,0,0,12.89h-1.09A8.65,8.65,0,0,1,514.53,151.64Z"/><path class="cls-5" d="M522.41,153.09h-1.14v-10H532v10Zm0-1h8.42v-8h-8.42Z"/><path class="cls-5" d="M536.51,148.89v-6.23h1.13v6.23Zm7.4-6.23h1.16v3.63a7.68,7.68,0,0,1-1.62,5.34,8.43,8.43,0,0,1-5.27,2.27l-.24-1q3.31-.5,4.64-2a6.65,6.65,0,0,0,1.33-4.6Z"/><path class="cls-5" d="M551.08,146.91l1,.37c-.74,1.67-1.54,3.3-2.42,4.89l-1-.44Q550,149.38,551.08,146.91Zm-2-2.72h5.35V142h1.13v2.24h3.2a1.81,1.81,0,0,1-.51-1.28,1.77,1.77,0,0,1,.54-1.3,1.79,1.79,0,0,1,1.31-.54,1.84,1.84,0,0,1,1.84,1.84,1.84,1.84,0,0,1-1.32,1.77v.5h-5.06V152a2.27,2.27,0,0,1-.28,1.4,1.94,1.94,0,0,1-1.32.3,14.1,14.1,0,0,1-2.24-.2l.11-1a12.09,12.09,0,0,0,1.92.17q.46,0,.57-.12a1.38,1.38,0,0,0,.11-.72v-6.69h-5.35Zm8.51,3.09,1-.43q1.31,2.47,2.43,5l-1,.43C559.1,150.37,558.3,148.7,557.56,147.28Zm3.24-3.64a1,1,0,0,0,.3-.73,1,1,0,0,0-1-1,1,1,0,0,0-1,1,1.06,1.06,0,0,0,1,1A1,1,0,0,0,560.8,143.64Z"/><path class="cls-5" d="M564.63,145.68l1-.23c.29,1,.63,2.25,1,3.77l-1,.23C565.31,148.13,565,146.88,564.63,145.68Zm9-.54a12.73,12.73,0,0,1-.82,4.58,5.62,5.62,0,0,1-2.24,2.67,10.66,10.66,0,0,1-4.08,1.28l-.21-.95c2.31-.34,3.93-1.06,4.84-2.15s1.4-2.92,1.48-5.49Zm-5.91.13,1-.23c.38,1.31.72,2.62,1,3.92l-1,.23C568.43,147.83,568.09,146.52,567.73,145.27Z"/><path class="cls-5" d="M586.6,143a1.71,1.71,0,0,1,.53-1.28,1.81,1.81,0,0,1,2.56,0,1.72,1.72,0,0,1,.54,1.28,1.83,1.83,0,0,1-1.82,1.82l-.28,0a9.23,9.23,0,0,1-2.47,6.25c-1.46,1.44-3.64,2.31-6.55,2.63l-.18-1a9.66,9.66,0,0,0,6-2.42A8.48,8.48,0,0,0,587,144.4h-9.38v-1h9A1.92,1.92,0,0,1,586.6,143Zm2.54.73a1.05,1.05,0,0,0,0-1.45,1,1,0,0,0-1.45,1.45,1.05,1.05,0,0,0,1.45,0Z"/><path class="cls-5" d="M591.43,144.73v-.94h2.62c.26-.84.47-1.56.63-2.15l1,.14c-.16.65-.34,1.32-.55,2h2.67v.94h-2.95a72.13,72.13,0,0,1-2.74,7.2l-1-.34c1-2.37,1.91-4.65,2.63-6.86Zm12.16.28a18.33,18.33,0,0,0-2.92-.26V150a18.66,18.66,0,0,1,3,2.1l-.66.76a26.56,26.56,0,0,0-2.38-1.74,2.78,2.78,0,0,1-.77,2.08,4.33,4.33,0,0,1-4.53,0,2.15,2.15,0,0,1-.79-1.76,2,2,0,0,1,.78-1.7,3.58,3.58,0,0,1,2.24-.61,5.81,5.81,0,0,1,2,.42v-5.71a27.23,27.23,0,0,1,4.08.28Zm-4,5.5a4.79,4.79,0,0,0-2-.51c-1.33,0-2,.46-2,1.39a1.32,1.32,0,0,0,.52,1.11,2.32,2.32,0,0,0,1.47.4,1.67,1.67,0,0,0,2-2.05Z"/><path class="cls-5" d="M616.09,146.33a27.59,27.59,0,0,0-6.54,2.12c-1.34.72-2,1.51-2,2.37q0,2.09,4.21,2.08a31.79,31.79,0,0,0,4.33-.32l.12,1a33,33,0,0,1-4.45.33q-5.35,0-5.35-3.08c0-1.24.88-2.31,2.62-3.23q-.6-2.33-1.1-5.2l1.1-.17c.27,1.58.61,3.2,1,4.87a36.61,36.61,0,0,1,5.81-1.74Zm-3-4,.85-.46c.42.7.86,1.48,1.31,2.34l-.84.41C614,143.88,613.59,143.11,613.12,142.35Zm2-.54.87-.46c.59,1,1,1.77,1.36,2.37l-.88.43Q615.79,142.94,615.1,141.81Z"/><path class="cls-5" d="M623.74,144.54a8.37,8.37,0,0,1,0,7.1,8.4,8.4,0,0,1-2.28,2.89h-1.09a8.28,8.28,0,0,0,0-12.89h1.09A8.34,8.34,0,0,1,623.74,144.54Z"/><text class="cls-2" transform="translate(394.99 303.39)">CMS<tspan x="-91.54" y="24.8">（</tspan><tspan class="cls-6" x="-77.37" y="24.8">W</tspan><tspan x="-64.57" y="24.8">o</tspan><tspan class="cls-7" x="-56.49" y="24.8">r</tspan><tspan x="-50.36" y="24.8">d</tspan><tspan class="cls-8" x="-42.17" y="24.8">P</tspan><tspan class="cls-7" x="-33.8" y="24.8">r</tspan><tspan x="-27.67" y="24.8">e</tspan><tspan class="cls-9" x="-19.84" y="24.8">s</tspan><tspan x="-12.94" y="24.8">s、ページの枠組み</tspan><tspan class="cls-10" x="107.49" y="24.8">）</tspan></text><rect class="cls-11" x="293.83" y="274.9" width="232.43" height="72.64"/><path class="cls-5" d="M400.8,293.85a3.92,3.92,0,0,0-3,1.18,4.46,4.46,0,0,0-1.11,3.18,4.39,4.39,0,0,0,1.14,3.18,3.93,3.93,0,0,0,3,1.19,5,5,0,0,0,2.73-.81l.39.85a5.81,5.81,0,0,1-3.22.91,5,5,0,0,1-3.74-1.45,5.29,5.29,0,0,1-1.41-3.87,5.36,5.36,0,0,1,1.39-3.88,5,5,0,0,1,3.76-1.43,5.8,5.8,0,0,1,3.22.9l-.39.85A5,5,0,0,0,400.8,293.85Z"/><path class="cls-5" d="M406,303.38V293h1.15l3.68,6.23h0l3.69-6.23h1.19v10.34h-1.14v-8.44h0l-3.21,5.37h-1.05l-3.2-5.37h0v8.44Z"/><path class="cls-5" d="M421.05,293.82a2.37,2.37,0,0,0-1.52.43,1.45,1.45,0,0,0-.53,1.2c0,.91.67,1.58,2,2a5.74,5.74,0,0,1,2.5,1.28,2.7,2.7,0,0,1,.74,2,2.62,2.62,0,0,1-.85,2.11,3.73,3.73,0,0,1-2.45.73,5.54,5.54,0,0,1-3.12-.9l.34-.93a4.74,4.74,0,0,0,2.78.88,2.4,2.4,0,0,0,1.61-.48,1.78,1.78,0,0,0,.56-1.41,1.91,1.91,0,0,0-.47-1.35,3.84,3.84,0,0,0-1.67-.87c-2.07-.62-3.1-1.62-3.1-3a2.28,2.28,0,0,1,.84-1.86,3.58,3.58,0,0,1,2.33-.69,6.81,6.81,0,0,1,3,.66l-.29.88A5.94,5.94,0,0,0,421.05,293.82Z"/><path class="cls-5" d="M312.62,326.64a8.37,8.37,0,0,1,0-7.1,8.43,8.43,0,0,1,2.27-2.9H316a8.29,8.29,0,0,0,0,12.9h-1.1A8.62,8.62,0,0,1,312.62,326.64Z"/><path class="cls-5" d="M319.42,317.84,321.5,327h0l2.12-9.13h1.48l2.12,9.13h0l2.08-9.13h1.12L328,328.19h-1.43l-2.13-9.13h0l-2.14,9.13H320.8l-2.55-10.35Z"/><path class="cls-5" d="M337,327.29a3.25,3.25,0,0,1-2.53,1,3.22,3.22,0,0,1-2.52-1,4.57,4.57,0,0,1,0-5.58,3.24,3.24,0,0,1,2.52-1,3.28,3.28,0,0,1,2.53,1,4.57,4.57,0,0,1,0,5.58Zm-.76-5a2.39,2.39,0,0,0-3.53,0,3.38,3.38,0,0,0-.65,2.19,3.35,3.35,0,0,0,.65,2.19,2.37,2.37,0,0,0,3.53,0,3.34,3.34,0,0,0,.64-2.19A3.38,3.38,0,0,0,336.22,322.31Z"/><path class="cls-5" d="M339.56,320.82h1l0,1.57h0a4.09,4.09,0,0,1,3.51-1.71v.89a3.7,3.7,0,0,0-2.54.86,2.87,2.87,0,0,0-1,2.24v3.52h-1.06Z"/><path class="cls-5" d="M345.27,324.5a4.45,4.45,0,0,1,.79-2.84,2.64,2.64,0,0,1,2.18-1,2.55,2.55,0,0,1,2.38,1.34h0v-4.46h1v10.63h-1l0-1.25h0a2.57,2.57,0,0,1-2.41,1.39,2.62,2.62,0,0,1-2.16-1A4.4,4.4,0,0,1,345.27,324.5Zm1.6-2.2a4.45,4.45,0,0,0,0,4.41,1.93,1.93,0,0,0,1.6.77,1.91,1.91,0,0,0,1.57-.75,3.33,3.33,0,0,0,.6-2.13v-.2a3.35,3.35,0,0,0-.6-2.11,2,2,0,0,0-3.18,0Z"/><path class="cls-5" d="M354,317.93a19,19,0,0,1,2.87-.23,4.57,4.57,0,0,1,2.93.81,2.85,2.85,0,0,1,1,2.34,3.09,3.09,0,0,1-1,2.49,4.39,4.39,0,0,1-2.92.85c-.62,0-1.2,0-1.74-.08v4.08H354Zm1.13,5.24a11.48,11.48,0,0,0,1.66.11,3.32,3.32,0,0,0,2.15-.61,2.12,2.12,0,0,0,.74-1.74,2.07,2.07,0,0,0-.73-1.72,3.41,3.41,0,0,0-2.16-.59,11,11,0,0,0-1.66.14Z"/><path class="cls-5" d="M362.25,320.82h1l0,1.57h0a4.09,4.09,0,0,1,3.51-1.71v.89a3.72,3.72,0,0,0-2.54.86,2.87,2.87,0,0,0-1,2.24v3.52h-1.06Z"/><path class="cls-5" d="M369,324.9a2.65,2.65,0,0,0,.74,1.9,2.51,2.51,0,0,0,1.84.69,4.7,4.7,0,0,0,2.17-.56l.28.8a5.57,5.57,0,0,1-2.55.6,3.32,3.32,0,0,1-2.56-1,3.85,3.85,0,0,1-1-2.79,4,4,0,0,1,.91-2.8,3.18,3.18,0,0,1,2.49-1,3,3,0,0,1,2.37,1,4.06,4.06,0,0,1,.85,2.78,4.54,4.54,0,0,1,0,.47Zm0-.82h4.54a2.84,2.84,0,0,0-.6-1.9,2,2,0,0,0-1.6-.67,2.16,2.16,0,0,0-1.68.68A2.85,2.85,0,0,0,369,324.08Z"/><path class="cls-5" d="M378.65,320.68a5.68,5.68,0,0,1,2.49.56l-.23.84a4.9,4.9,0,0,0-2.26-.55,2.3,2.3,0,0,0-1.26.29,1,1,0,0,0-.43.84,1,1,0,0,0,.37.81,3.27,3.27,0,0,0,1.37.47,4.2,4.2,0,0,1,2.08.79,1.91,1.91,0,0,1,.63,1.52,1.8,1.8,0,0,1-.73,1.52,3.31,3.31,0,0,1-2,.56,5.32,5.32,0,0,1-2.73-.71l.24-.83a4.82,4.82,0,0,0,2.49.69,2.17,2.17,0,0,0,1.26-.32,1.17,1.17,0,0,0,0-1.79,3.1,3.1,0,0,0-1.37-.48,4.25,4.25,0,0,1-2-.78,1.78,1.78,0,0,1-.63-1.45,1.73,1.73,0,0,1,.72-1.45A3.36,3.36,0,0,1,378.65,320.68Z"/><path class="cls-5" d="M385.55,320.68a5.65,5.65,0,0,1,2.49.56l-.23.84a4.9,4.9,0,0,0-2.26-.55,2.3,2.3,0,0,0-1.26.29,1,1,0,0,0-.43.84,1,1,0,0,0,.38.81,3.22,3.22,0,0,0,1.36.47,4.2,4.2,0,0,1,2.08.79,1.91,1.91,0,0,1,.63,1.52,1.8,1.8,0,0,1-.73,1.52,3.29,3.29,0,0,1-2,.56,5.28,5.28,0,0,1-2.72-.71l.24-.83a4.76,4.76,0,0,0,2.48.69,2.15,2.15,0,0,0,1.26-.32,1.17,1.17,0,0,0,.05-1.79,3.1,3.1,0,0,0-1.37-.48,4.21,4.21,0,0,1-2-.78,1.78,1.78,0,0,1-.63-1.45,1.72,1.72,0,0,1,.71-1.45A3.36,3.36,0,0,1,385.55,320.68Z"/><path class="cls-5" d="M393.61,328.3l-.92.72a38.44,38.44,0,0,0-2.78-3l.87-.78C391.74,326.17,392.69,327.2,393.61,328.3Z"/><path class="cls-5" d="M403.8,325.52c.31-.37.67-.82,1.07-1.34l1.17-1.51.68-.87a20.87,20.87,0,0,1,1.55-2,1.26,1.26,0,0,1,.92-.39,1.61,1.61,0,0,1,1,.34,23.29,23.29,0,0,1,1.76,1.77c1.58,1.72,3.22,3.43,4.93,5.15l-.79.82c-1.64-1.65-3.29-3.38-4.95-5.17q-1-1.08-1.35-1.41a1,1,0,0,0-.6-.33c-.12,0-.27.11-.46.34s-.49.6-.89,1.13l-.17.24q-1.77,2.35-3,3.87Zm11.76-7.76a2,2,0,0,1,0,2.77,1.88,1.88,0,0,1-1.38.57,2,2,0,0,1-1.39-3.34,1.89,1.89,0,0,1,1.39-.58A1.85,1.85,0,0,1,415.56,317.76Zm-.6,2.16a1.06,1.06,0,0,0,.32-.77,1.1,1.1,0,0,0-.32-.79,1.07,1.07,0,0,0-.78-.33,1,1,0,0,0-.78.33,1.07,1.07,0,0,0-.33.79,1.13,1.13,0,0,0,1.11,1.1A1.07,1.07,0,0,0,415,319.92Z"/><path class="cls-5" d="M418.75,323.62v-1.07h11.54v1.07Z"/><path class="cls-5" d="M433.3,322.21l.19-1c1.66.28,3.19.57,4.61.87l-.2,1C435.65,322.64,434.12,322.35,433.3,322.21Zm.56,5.51q4.51-.39,6.7-2.25a9.63,9.63,0,0,0,2.91-5.9l1,.17a10.72,10.72,0,0,1-3.23,6.5c-1.63,1.4-4,2.24-7.25,2.51Zm.05-9,.19-1c1.65.26,3.25.56,4.82.88l-.2,1C437.39,319.31,435.79,319,433.91,318.72Zm7.46-1.77.78-.41c.39.63.79,1.33,1.2,2.11l-.78.4C442.23,318.39,441.83,317.7,441.37,317Zm1.92-.23.79-.42c.38.63.79,1.35,1.22,2.17l-.79.39C444.09,318.08,443.69,317.37,443.29,316.72Z"/><path class="cls-5" d="M454.23,327.52a3.79,3.79,0,0,0,2.65-1.34,4.77,4.77,0,0,0,.95-3.09,4,4,0,0,0-1.19-3,4.33,4.33,0,0,0-3.05-1.23,39.31,39.31,0,0,1-.74,4.65,11.84,11.84,0,0,1-1,2.87,4.22,4.22,0,0,1-1.07,1.36,2,2,0,0,1-1.18.39,2.38,2.38,0,0,1-1.88-1.24,5.17,5.17,0,0,1-.86-3,5.59,5.59,0,0,1,1.83-4.33,6.7,6.7,0,0,1,4.74-1.68,5.42,5.42,0,0,1,3.89,1.47,5,5,0,0,1,1.53,3.74,5.78,5.78,0,0,1-1.19,3.8,4.44,4.44,0,0,1-3.23,1.62Zm-1.71-8.59a5.3,5.3,0,0,0-3.36,1.61,4.73,4.73,0,0,0-1.25,3.35,4.27,4.27,0,0,0,.57,2.27c.37.63.75.94,1.13.94a1,1,0,0,0,.53-.19,2.54,2.54,0,0,0,.62-.75,7.7,7.7,0,0,0,.64-1.42,22.46,22.46,0,0,0,.6-2.36C452.2,321.38,452.37,320.23,452.52,318.93Z"/><path class="cls-5" d="M465.47,319.33v1h-1.42c.51,1.13,1,2.29,1.53,3.49l-.79.65c-.45-1.17-.78-2-1-2.42v7.41h-1.05v-6.5a16.3,16.3,0,0,1-1.83,3.77l-.68-.83a18.85,18.85,0,0,0,2.46-5.58h-2v-.95h2.07v-2.58h1.05v2.58Zm3.74,3.36h1.14v1.81h3.47v.95h-3.49v4h-1.09v-4H465.1v-.95h4.11Zm3.7-3.05.89.09v1.06c0,.25,0,.52-.05.79a4.11,4.11,0,0,1-.07.6,1.78,1.78,0,0,1-.13.39.81.81,0,0,1-.19.27,1.69,1.69,0,0,1-.29.13,1.61,1.61,0,0,1-.37.07h-.51a2,2,0,0,1-1.07-.18c-.14-.12-.21-.46-.21-1v-2.66h-1.67A5.2,5.2,0,0,1,466,323.6l-.55-.88a5.21,5.21,0,0,0,1.93-1.53,3.41,3.41,0,0,0,.73-2h-2.4v-.92h2.55v-1.52h1.07v1.52H472v3.5a.47.47,0,0,0,.05.28.75.75,0,0,0,.34,0,.4.4,0,0,0,.45-.31A16.14,16.14,0,0,0,472.91,319.64Z"/><path class="cls-5" d="M474.65,328.44a22.53,22.53,0,0,0,.66-4l.92.09a24.11,24.11,0,0,1-.67,4.05Zm4.11-7.66.91-.23a23.15,23.15,0,0,1,.92,3.46l-.9.18c-.07-.31-.12-.52-.15-.62l-1.48.08v5.77H477v-5.71l-2.26.13-.05-.92,1.32-.08c.06-.08.14-.21.26-.37l.28-.38c-.71-1.19-1.31-2.16-1.8-2.9l.61-.88.29.46.28.45c.43-.76.87-1.62,1.31-2.58l.9.39c-.48,1-1,2.05-1.66,3.09l.66,1.11c.68-1,1.31-2.06,1.9-3.15l.84.44a40.43,40.43,0,0,1-2.66,4.27l2.12-.12Q479.15,322,478.76,320.78Zm1.36,6.61-.9.1c-.09-1-.23-2-.43-3l.88-.14A22.55,22.55,0,0,1,480.12,327.39Zm7.86,1.76h-8.39v-.93h1.31V317.1H487v11.12h1Zm-6-8.37h3.91v-2.73H482Zm0,.92v2.76h3.91V321.7Zm0,3.68v2.84h3.91v-2.84Z"/><path class="cls-5" d="M492.24,328.51a2.7,2.7,0,0,1-2-1.08,3.49,3.49,0,0,1-1-2.36,2.55,2.55,0,0,1,1.32-2.1,6.74,6.74,0,0,1,3.57-1c.17-1.27.3-2.38.39-3.32h-4.26v-.95h5.33v.95c-.13,1.2-.26,2.31-.39,3.32a12,12,0,0,1,3.15.53c0-.87.06-2.1.06-3.67h1c0,1.77,0,3.11-.07,4a13.1,13.1,0,0,1,2.39,1.21l-.48.86a15.36,15.36,0,0,0-2-1,12.91,12.91,0,0,1-.31,2.07,4,4,0,0,1-1.48,2.29,9.29,9.29,0,0,1-1.29.77l-.54-.87c.39-.2.7-.37.93-.52a4.74,4.74,0,0,0,.67-.56,2.38,2.38,0,0,0,.51-.8,6.31,6.31,0,0,0,.3-1.13,13.81,13.81,0,0,0,.2-1.61,12,12,0,0,0-3.23-.6,28.11,28.11,0,0,1-.57,2.88,7,7,0,0,1-.67,1.7,2.15,2.15,0,0,1-.74.8A1.81,1.81,0,0,1,492.24,328.51Zm1.8-5.57a5.73,5.73,0,0,0-2.68.72,1.71,1.71,0,0,0-1,1.41,2.59,2.59,0,0,0,.63,1.62,1.75,1.75,0,0,0,1.22.79.78.78,0,0,0,.62-.36,5,5,0,0,0,.59-1.4A22.26,22.26,0,0,0,494,322.94Z"/><path class="cls-5" d="M507.47,319.54a8.37,8.37,0,0,1,0,7.1,8.62,8.62,0,0,1-2.27,2.9h-1.09a8.31,8.31,0,0,0,0-12.9h1.09A8.43,8.43,0,0,1,507.47,319.54Z"/><text class="cls-2" transform="translate(119.26 521.57)">カテゴリーページ</text><rect class="cls-4" x="102.95" y="491.63" width="147.22" height="48.64"/><path class="cls-5" d="M124.79,510.23h1.06c0,.81,0,1.57,0,2.27h5.54v.8c0,1.5,0,2.74-.08,3.72a24.37,24.37,0,0,1-.22,2.44,4.07,4.07,0,0,1-.45,1.45,1.66,1.66,0,0,1-.66.66,2.08,2.08,0,0,1-.93.18,25.08,25.08,0,0,1-2.69-.16l.08-1a20.12,20.12,0,0,0,2.33.15,1,1,0,0,0,.88-.42,4.91,4.91,0,0,0,.44-1.92,45.32,45.32,0,0,0,.17-4.57v-.32h-4.48a14.47,14.47,0,0,1-1.18,5.12,9.89,9.89,0,0,1-2.93,3.41l-.68-.77a10.41,10.41,0,0,0,1.9-1.82,7.88,7.88,0,0,0,1.18-2.36,15.86,15.86,0,0,0,.65-3.58h-3.62v-1h3.69C124.77,511.81,124.79,511.05,124.79,510.23Z"/><path class="cls-5" d="M134.57,515.09h11.9v1h-4.86a5.55,5.55,0,0,1-4.7,6.1l-.31-1a4.58,4.58,0,0,0,3.88-5.12h-5.91Zm1.6-2.84v-1h8.7v1Z"/><path class="cls-5" d="M157.7,510.29l.78-.42c.39.64.78,1.34,1.19,2.12l-.72.36v9h-9.78v-1h8.69V513h-8.69v-1h9.54C158.45,511.56,158.11,511,157.7,510.29Zm1.91-.25.8-.41c.5.83.91,1.54,1.23,2.16l-.81.39C160.42,511.4,160,510.69,159.61,510Z"/><path class="cls-5" d="M164.59,517.27V511h1.13v6.23ZM172,511h1.16v3.62a7.71,7.71,0,0,1-1.62,5.35c-1.07,1.18-2.83,1.93-5.27,2.27l-.24-1q3.31-.5,4.64-2a6.7,6.7,0,0,0,1.33-4.6Z"/><path class="cls-5" d="M177.27,517v-1.07h11.54V517Z"/><path class="cls-5" d="M190.67,518.9c.31-.38.67-.82,1.07-1.34l1.17-1.51c.37-.49.6-.78.68-.88a22,22,0,0,1,1.55-2,1.27,1.27,0,0,1,.91-.38,1.61,1.61,0,0,1,1,.34,22.71,22.71,0,0,1,1.77,1.77c1.57,1.71,3.22,3.43,4.93,5.15l-.8.82c-1.64-1.65-3.29-3.38-4.94-5.17-.66-.72-1.11-1.19-1.36-1.41a1,1,0,0,0-.6-.34c-.11,0-.26.12-.46.34s-.49.61-.88,1.14a1.59,1.59,0,0,0-.17.24q-1.78,2.35-3,3.87Zm11.75-7.77a2,2,0,0,1,0,2.78,2,2,0,0,1-2.76,0,2,2,0,0,1,0-2.78,1.93,1.93,0,0,1,2.76,0Zm-.6,2.17a1,1,0,0,0,.33-.78,1.11,1.11,0,1,0-2.21,0,1,1,0,0,0,.32.78,1.09,1.09,0,0,0,1.56,0Z"/><path class="cls-5" d="M205.62,517v-1.07h11.54V517Z"/><path class="cls-5" d="M220.16,515.59l.2-1c1.65.28,3.19.57,4.61.86l-.2,1C222.52,516,221,515.73,220.16,515.59Zm.57,5.51c3-.27,5.24-1,6.69-2.25a9.64,9.64,0,0,0,2.92-5.9l1,.17a10.74,10.74,0,0,1-3.22,6.5q-2.44,2.1-7.25,2.51Zm0-9,.2-1c1.64.26,3.25.56,4.82.88l-.2,1C224.26,512.69,222.65,512.4,220.77,512.1Zm7.47-1.77.78-.41c.39.63.78,1.33,1.19,2.11l-.78.39C229.09,511.77,228.69,511.07,228.24,510.33Zm1.91-.23.8-.42c.37.63.78,1.35,1.22,2.16l-.8.4C231,511.46,230.55,510.74,230.15,510.1Z"/><text class="cls-2" transform="translate(374.61 526.11)">記事ページ</text><rect class="cls-4" x="357.42" y="496.22" width="105.58" height="49.19"/><path class="cls-5" d="M375.42,518.06v-.95h5.39v.95Zm.4-2v-.92h4.53v.92Zm1,10.74v.63h-1v-4.24h4.56v3.61Zm-.93-6.73v-.89h4.39v.89Zm0,2v-.9h4.39v.9Zm.93,3.83h2.54v-1.81h-2.54Zm9.6-4.29v-.91h-4v4.09a3.16,3.16,0,0,0,.09,1c.06.11.26.18.59.21s.86.05,1.29.05,1,0,1.43-.05.76-.18.86-.43a13.79,13.79,0,0,0,.28-2.53l1.12.09c0,.66-.08,1.16-.1,1.5a8.48,8.48,0,0,1-.15,1,2.91,2.91,0,0,1-.21.68,1,1,0,0,1-.34.36,1.13,1.13,0,0,1-.49.22l-.73.08c-.69,0-1.29.07-1.81.07s-1,0-1.65-.07a5.91,5.91,0,0,1-.61-.1,1.94,1.94,0,0,1-.36-.15.5.5,0,0,1-.22-.36,5,5,0,0,1-.07-.59c0-.2,0-.52,0-.94v-5.14h5.11v-3.47h-5.28v-1h6.37v6.31Z"/><path class="cls-5" d="M402.25,522.4v.88h-1v2.65h-1.09v-.77h-3.7v.67q0,.95-.3,1.17a3.27,3.27,0,0,1-1.53.22c-.42,0-1.1,0-2.06-.07v-.9c.85,0,1.5.08,2,.08a2.48,2.48,0,0,0,.66-.05c.06,0,.09-.16.09-.38v-.74H390.1v-.82h5.18v-1.06h-5.79v-.88h5.79v-1H390.1v-.85h5.18v-.78h-4.61v-2.69h4.61v-.78h-5.64v-.88h5.64v-.95h1.19v.95h5.64v.88h-5.64v.78h4.6v2.69h-4.6v.78h4.79v1.86ZM391.76,519h3.52v-1.09h-3.52Zm4.71,0H400v-1.09h-3.51Zm0,3.42h3.7v-1h-3.7Zm0,1.94h3.7v-1.06h-3.7Z"/><path class="cls-5" d="M403.5,523.45l1.07-1.34,1.17-1.51c.37-.49.6-.78.68-.88a20.55,20.55,0,0,1,1.55-2,1.27,1.27,0,0,1,.91-.38,1.55,1.55,0,0,1,1,.34,20.94,20.94,0,0,1,1.77,1.77q2.37,2.57,4.93,5.14l-.79.83c-1.65-1.66-3.3-3.38-5-5.18-.66-.71-1.11-1.19-1.35-1.41a1.05,1.05,0,0,0-.61-.33c-.11,0-.26.11-.46.34s-.49.6-.88,1.13a2.24,2.24,0,0,0-.17.25c-1.18,1.56-2.19,2.85-3,3.86Zm11.75-7.77a1.89,1.89,0,0,1,.58,1.39,1.85,1.85,0,0,1-.58,1.38,2,2,0,0,1-3.33-1.38,1.92,1.92,0,0,1,.57-1.39,1.93,1.93,0,0,1,2.76,0Zm-.6,2.17a1.07,1.07,0,0,0,.33-.78,1.11,1.11,0,0,0-.33-.79,1.09,1.09,0,0,0-1.56,0,1.14,1.14,0,0,0-.32.79,1.1,1.1,0,0,0,.32.78,1.09,1.09,0,0,0,1.56,0Z"/><path class="cls-5" d="M418.45,521.55v-1.08H430v1.08Z"/><path class="cls-5" d="M433,520.13l.2-1c1.65.29,3.19.58,4.61.87l-.2,1C435.35,520.57,433.81,520.27,433,520.13Zm.57,5.51c3-.26,5.24-1,6.7-2.24a9.66,9.66,0,0,0,2.91-5.9l1,.16a10.71,10.71,0,0,1-3.22,6.5q-2.44,2.12-7.25,2.52Zm0-9,.2-1c1.64.27,3.25.56,4.82.88l-.2,1C437.09,517.24,435.48,517,433.6,516.64Zm7.47-1.77.78-.41c.39.64.79,1.34,1.19,2.11l-.78.4C441.92,516.32,441.52,515.62,441.07,514.87Zm1.91-.22.8-.43c.38.63.78,1.36,1.22,2.17l-.8.4C443.79,516,443.38,515.29,443,514.65Z"/><text class="cls-2" transform="translate(580.89 526.11)">記事一覧ページ</text><rect class="cls-4" x="563.7" y="496.22" width="133.92" height="49.24"/><path class="cls-5" d="M581.7,518.06v-.95h5.39v.95Zm.4-2v-.92h4.53v.92Zm1,10.74v.63h-1v-4.24h4.56v3.61Zm-.93-6.73v-.89h4.39v.89Zm0,2v-.9h4.39v.9Zm.93,3.83h2.54v-1.81h-2.54Zm9.6-4.29v-.91h-4v4.09a3.16,3.16,0,0,0,.09,1c.06.11.26.18.59.21s.86.05,1.29.05,1,0,1.43-.05.76-.18.86-.43a13.79,13.79,0,0,0,.28-2.53l1.12.09c0,.66-.08,1.16-.1,1.5a8.48,8.48,0,0,1-.15,1,2.91,2.91,0,0,1-.21.68,1,1,0,0,1-.34.36,1.13,1.13,0,0,1-.49.22l-.73.08c-.69,0-1.29.07-1.81.07s-1,0-1.64-.07a5.08,5.08,0,0,1-.61-.1,1.79,1.79,0,0,1-.37-.15.54.54,0,0,1-.22-.36,5,5,0,0,1-.07-.59c0-.2,0-.52,0-.94v-5.14h5.1v-3.47h-5.27v-1h6.36v6.31Z"/><path class="cls-5" d="M608.53,522.4v.88h-1v2.65h-1.09v-.77h-3.7v.67q0,.95-.3,1.17a3.27,3.27,0,0,1-1.53.22c-.42,0-1.1,0-2.06-.07v-.9c.85,0,1.5.08,2,.08a2.48,2.48,0,0,0,.66-.05c.06,0,.09-.16.09-.38v-.74h-5.18v-.82h5.18v-1.06h-5.79v-.88h5.79v-1h-5.18v-.85h5.18v-.78H597v-2.69h4.61v-.78h-5.64v-.88h5.64v-.95h1.19v.95h5.64v.88h-5.64v.78h4.6v2.69h-4.6v.78h4.79v1.86ZM598,519h3.52v-1.09H598Zm4.71,0h3.51v-1.09h-3.51Zm0,3.42h3.7v-1h-3.7Zm0,1.94h3.7v-1.06h-3.7Z"/><path class="cls-5" d="M610,521.25v-1.09h12.67v1.09Z"/><path class="cls-5" d="M626.71,524.88h-1.1V520h-.92v-5.12h5.88v.78h-2.08v.6h1.63v1.83h-1.63v.59h2.22v.75h-5v.5h9.67v5h-2.91V526c0,.24.07.37.2.41a8,8,0,0,0,1.36.06h.49a1.86,1.86,0,0,0,.36,0l.27,0a.57.57,0,0,0,.17-.16.48.48,0,0,0,.13-.22l.06-.36a3.47,3.47,0,0,0,.07-.48c0-.13,0-.34,0-.65l1.06.1c0,.39-.05.68-.06.89a6.26,6.26,0,0,1-.1.66,5,5,0,0,1-.13.49.84.84,0,0,1-.23.32.78.78,0,0,1-.31.22,4,4,0,0,1-.46.1,3.59,3.59,0,0,1-.62.06h-.84l-1.19,0-.73-.07a.76.76,0,0,1-.43-.16.63.63,0,0,1-.16-.27,1.32,1.32,0,0,1,0-.45v-1.47h-1.85a2.81,2.81,0,0,1-1.49,1.71,8.55,8.55,0,0,1-3.34.87l-.31-1c2.29-.19,3.61-.73,4-1.63Zm-1-8.63h1.73v-.6h-1.73Zm0,1.2h3.33v-.59h-3.33Zm1.73,1.22v-.59h-1.73v.59Zm-.77,2.74h7.57v-.73h-7.57Zm0,.62v.72h7.57V522Zm0,1.35v.72h7.57v-.72Zm3.55-6a8.09,8.09,0,0,0,2-3l1,.14c-.13.38-.24.66-.32.85h3.8v.92h-4.28a9.14,9.14,0,0,1-1.58,2Zm1.2,1.25v-.89h4.88v.89Z"/><path class="cls-5" d="M638.12,523.45c.32-.38.67-.83,1.07-1.34l1.17-1.51.68-.88a22.4,22.4,0,0,1,1.55-2,1.29,1.29,0,0,1,.92-.38,1.55,1.55,0,0,1,1,.34,21.43,21.43,0,0,1,1.76,1.77q2.37,2.57,4.93,5.14l-.79.83c-1.64-1.66-3.29-3.38-4.95-5.18-.66-.71-1.11-1.19-1.35-1.41a1,1,0,0,0-.6-.33c-.11,0-.27.11-.46.34s-.49.6-.89,1.13l-.17.25q-1.77,2.34-3,3.86Zm11.76-7.77a1.92,1.92,0,0,1,.57,1.39,1.94,1.94,0,0,1-3.33,1.38,1.85,1.85,0,0,1-.58-1.38,1.89,1.89,0,0,1,.58-1.39,1.93,1.93,0,0,1,2.76,0Zm-.6,2.17a1.1,1.1,0,0,0,.32-.78,1.14,1.14,0,0,0-.32-.79,1.09,1.09,0,0,0-1.56,0,1.11,1.11,0,0,0-.33.79,1.1,1.1,0,0,0,1.89.78Z"/><path class="cls-5" d="M653.08,521.55v-1.08h11.53v1.08Z"/><path class="cls-5" d="M667.62,520.13l.19-1c1.66.29,3.19.58,4.61.87l-.2,1C670,520.57,668.44,520.27,667.62,520.13Zm.56,5.51q4.52-.39,6.7-2.24a9.66,9.66,0,0,0,2.91-5.9l1,.16a10.72,10.72,0,0,1-3.23,6.5c-1.63,1.41-4,2.25-7.25,2.52Zm.05-9,.19-1c1.65.27,3.26.56,4.82.88l-.19,1C671.71,517.24,670.11,517,668.23,516.64Zm7.47-1.77.78-.41c.38.64.78,1.34,1.19,2.11l-.78.4C676.55,516.32,676.15,515.62,675.7,514.87Zm1.91-.22.79-.43c.38.63.79,1.36,1.22,2.17l-.79.4C678.41,516,678,515.29,677.61,514.65Z"/><line class="cls-12" x1="364.59" y1="136.34" x2="462.49" y2="137.44"/><polygon class="cls-5" points="456.79 142.18 461.65 137.43 456.89 132.57 460.98 132.62 465.73 137.48 460.87 142.23 456.79 142.18"/><line class="cls-12" x1="486.38" y1="173.41" x2="436.33" y2="245.34"/><polygon class="cls-5" points="435.62 237.96 436.81 244.65 443.5 243.45 441.17 246.8 434.48 248 433.28 241.31 435.62 237.96"/><line class="cls-12" x1="490" y1="362.19" x2="591.96" y2="467.86"/><polygon class="cls-5" points="584.58 467.14 591.38 467.26 591.5 460.46 594.33 463.4 594.21 470.19 587.41 470.07 584.58 467.14"/><line class="cls-12" x1="320.1" y1="362.51" x2="215.61" y2="471.64"/><polygon class="cls-5" points="216.04 464.24 216.19 471.04 222.98 470.89 220.16 473.84 213.37 473.98 213.22 467.19 216.04 464.24"/><line class="cls-12" x1="410.05" y1="362.51" x2="410.05" y2="472.64"/><polygon class="cls-5" points="405.24 466.99 410.05 471.8 414.85 466.99 414.85 471.07 410.05 475.88 405.24 471.07 405.24 466.99"/><text class="cls-2" transform="translate(58.1 263.67)">①UR<tspan class="cls-13" x="32.64" y="0">L</tspan><tspan x="44.47" y="0">アクセス</tspan><tspan x="8.06" y="24.8">（ユーザー</tspan><tspan class="cls-14" x="78.93" y="24.8">）</tspan></text><rect class="cls-15" x="40.76" y="234.14" width="134.97" height="73.67"/><path class="cls-5" d="M67.68,264.48a6.36,6.36,0,0,1-5,0,6.32,6.32,0,0,1-3.42-3.42,6.36,6.36,0,0,1,0-5,6.52,6.52,0,0,1,1.37-2,6.7,6.7,0,0,1,2-1.37,6.36,6.36,0,0,1,5,0,6.32,6.32,0,0,1,3.42,3.42,6.36,6.36,0,0,1,0,5,6.7,6.7,0,0,1-1.37,2.05A6.52,6.52,0,0,1,67.68,264.48Zm-6.47-1.94a5.61,5.61,0,1,0-1.65-4A5.43,5.43,0,0,0,61.21,262.54Zm3.62-7.9H66v7.85H64.83v-6.65h0l-2.24,1.7v-1.21Z"/><path class="cls-5" d="M77.13,262.85c1.77,0,2.65-1.07,2.65-3.19v-6.34h1.11v6.28a4.56,4.56,0,0,1-1,3.14,4.21,4.21,0,0,1-5.61,0,4.51,4.51,0,0,1-1-3.14v-6.28h1.15v6.34C74.48,261.78,75.37,262.85,77.13,262.85Z"/><path class="cls-5" d="M83.16,263.67V253.39a15.73,15.73,0,0,1,2.65-.21,5.05,5.05,0,0,1,3,.73,2.41,2.41,0,0,1,1,2.08,2.85,2.85,0,0,1-.58,1.8,3,3,0,0,1-1.65,1v0a3.56,3.56,0,0,1,1.26,1.84l1.25,3H88.93l-1.22-3a2.87,2.87,0,0,0-.81-1.27,2.91,2.91,0,0,0-1.48-.25H84.29v4.51Zm1.13-5.42h1.13a4.45,4.45,0,0,0,2.48-.54,1.86,1.86,0,0,0,.8-1.63c0-1.32-1-2-3-2a7.14,7.14,0,0,0-1.42.13Z"/><path class="cls-5" d="M93.12,253.32v9.38h5.06v1H91.94V253.32Z"/><path class="cls-5" d="M104.3,254.53v-1h11.2v1a7.21,7.21,0,0,1-1.45,2.73,7.6,7.6,0,0,1-2.49,1.93l-.57-.88a6.13,6.13,0,0,0,3.35-3.78Zm4.18,1.34h1.08a13.24,13.24,0,0,1-.89,5.49,5.73,5.73,0,0,1-3,2.78l-.51-.91a4.79,4.79,0,0,0,2.62-2.43A12.4,12.4,0,0,0,108.48,255.87Z"/><path class="cls-5" d="M127.5,255h-5.58a10.4,10.4,0,0,1-2.82,4.3l-.77-.68a9.58,9.58,0,0,0,3-6.08l1.06.07a10,10,0,0,1-.24,1.4h6.45v.24q0,4.72-2.23,7c-1.49,1.55-3.86,2.47-7.11,2.74l-.17-1q4.32-.42,6.27-2.26C126.71,259.56,127.41,257.64,127.5,255Z"/><path class="cls-5" d="M143.63,263.5a40.32,40.32,0,0,1-5.3.35,4,4,0,0,1-2.67-.62,4,4,0,0,1-.63-2.68v-3.69l-3.19.54-.16-1,3.35-.57v-3.18h1.09v3l7.68-1.29.16,1a8.8,8.8,0,0,1-1.4,2.67,9.27,9.27,0,0,1-2.25,2.13l-.66-.81a8.22,8.22,0,0,0,1.85-1.69,8.71,8.71,0,0,0,1.27-2.11l-6.65,1.12v3.68a11.12,11.12,0,0,0,.06,1.35,1.22,1.22,0,0,0,1.07,1.08,10.45,10.45,0,0,0,1.32.06,35.57,35.57,0,0,0,5-.35Z"/><path class="cls-5" d="M147.78,254.53v-1h8.79v1a15,15,0,0,1-3.06,4.63q2.06,1.9,4.22,4.17l-.76.73q-2.07-2.18-4.2-4.16a23.11,23.11,0,0,1-5.72,4l-.49-.9a23,23,0,0,0,5.45-3.83,15.12,15.12,0,0,0,3.37-4.63Z"/><path class="cls-5" d="M75.34,286.92a8.37,8.37,0,0,1,0-7.1,8.52,8.52,0,0,1,2.27-2.9h1.1a8.29,8.29,0,0,0,0,12.9h-1.1A8.52,8.52,0,0,1,75.34,286.92Z"/><path class="cls-5" d="M83,278.59h8.09l-.69,8.56h2.9v1H81.51v-1h7.71l.64-7.57H83Z"/><path class="cls-5" d="M95.83,283.91v-1.08h11.53v1.08Z"/><path class="cls-5" d="M109.35,280.15h2.41V277.6h1.06v2.55h5V277.6h1.11v2.55h2.73v1h-2.73v.91c0,2.36-.5,4.07-1.49,5.11s-2.71,1.68-5.16,1.92l-.2-1a12.67,12.67,0,0,0,2.77-.54,4.41,4.41,0,0,0,1.75-1.08,3.9,3.9,0,0,0,1-1.77,10.86,10.86,0,0,0,.27-2.65v-.91h-5v3.22h-1.06v-3.22h-2.41Zm9.76-3.19.83-.28c.37.83.69,1.57.94,2.22l-.83.27C119.84,278.62,119.53,277.88,119.11,277Zm1.75-.24.83-.28c.42.92.74,1.68,1,2.28l-.85.25C121.48,278.11,121.16,277.36,120.86,276.72Z"/><path class="cls-5" d="M124.17,283.91v-1.08h11.54v1.08Z"/><path class="cls-5" d="M142,279.82a8.37,8.37,0,0,1,0,7.1,8.52,8.52,0,0,1-2.27,2.9h-1.09a8.31,8.31,0,0,0,0-12.9h1.09A8.52,8.52,0,0,1,142,279.82Z"/><text class="cls-2" transform="translate(568.44 218.99)">➁UR<tspan class="cls-13" x="32.64" y="0">L</tspan><tspan x="44.47" y="0">の記事をデータベースから取得</tspan></text><rect class="cls-16" x="551.11" y="188.96" width="277.66" height="49.35"/><path class="cls-5" d="M578,219.8a6.23,6.23,0,0,1-2.49.51,6.32,6.32,0,0,1-2.5-.51,6.48,6.48,0,0,1-2-1.37,6.41,6.41,0,0,1-1.37-2.05,6.33,6.33,0,0,1,0-5,6.41,6.41,0,0,1,1.37-2.05,6.48,6.48,0,0,1,2-1.37,6.32,6.32,0,0,1,2.5-.51A6.23,6.23,0,0,1,578,208a6.32,6.32,0,0,1,3.42,3.42,6.33,6.33,0,0,1,0,5A6.32,6.32,0,0,1,578,219.8Zm-6.47-1.93a5.63,5.63,0,1,0-1.65-4A5.43,5.43,0,0,0,571.55,217.87Zm3-1v0h3.54v.91h-5v-.91a20.78,20.78,0,0,0,3.08-2.82,3.1,3.1,0,0,0,.78-1.89,1.4,1.4,0,0,0-.39-1.06,1.58,1.58,0,0,0-1.14-.37,4.61,4.61,0,0,0-2.17.63v-1a5.28,5.28,0,0,1,2.31-.51,2.71,2.71,0,0,1,1.87.6,2.13,2.13,0,0,1,.65,1.65,3.59,3.59,0,0,1-.75,2.09A17.06,17.06,0,0,1,574.51,216.89Z"/><path class="cls-5" d="M587.48,218.17c1.76,0,2.65-1.06,2.65-3.19v-6.33h1.1v6.27a4.51,4.51,0,0,1-1,3.14,4.2,4.2,0,0,1-5.6,0,4.46,4.46,0,0,1-1-3.14v-6.27h1.15V215C584.83,217.11,585.71,218.17,587.48,218.17Z"/><path class="cls-5" d="M593.5,219V208.72a15.78,15.78,0,0,1,2.65-.22,5.19,5.19,0,0,1,3,.73,2.42,2.42,0,0,1,1,2.08,2.76,2.76,0,0,1-.58,1.8,3,3,0,0,1-1.64,1v0A3.73,3.73,0,0,1,599.2,216l1.25,3h-1.18l-1.22-3a3,3,0,0,0-.8-1.27,3.05,3.05,0,0,0-1.48-.24h-1.13V219Zm1.14-5.41h1.13a4.4,4.4,0,0,0,2.48-.55,1.82,1.82,0,0,0,.79-1.62c0-1.32-1-2-3-2a7.88,7.88,0,0,0-1.41.12Z"/><path class="cls-5" d="M603.46,208.65V218h5.06v1h-6.23V208.65Z"/><path class="cls-5" d="M621.36,218.33A3.87,3.87,0,0,0,624,217a4.73,4.73,0,0,0,.94-3.09,4,4,0,0,0-1.19-3,4.37,4.37,0,0,0-3-1.23,39.11,39.11,0,0,1-.75,4.65,11.33,11.33,0,0,1-1,2.87,4.12,4.12,0,0,1-1.08,1.36,2,2,0,0,1-1.18.39,2.35,2.35,0,0,1-1.87-1.23,5.12,5.12,0,0,1-.86-3,5.64,5.64,0,0,1,1.82-4.34,6.74,6.74,0,0,1,4.74-1.67,5.39,5.39,0,0,1,3.89,1.47,4.9,4.9,0,0,1,1.54,3.73,5.85,5.85,0,0,1-1.19,3.81,4.47,4.47,0,0,1-3.23,1.62Zm-1.71-8.59a5.24,5.24,0,0,0-3.35,1.6A4.74,4.74,0,0,0,615,214.7a4.3,4.3,0,0,0,.57,2.27c.38.62.76.93,1.13.93a1,1,0,0,0,.54-.19,2.61,2.61,0,0,0,.61-.74,7.35,7.35,0,0,0,.64-1.42,19,19,0,0,0,.6-2.37C619.34,212.18,619.51,211,619.65,209.74Z"/><path class="cls-5" d="M627.9,210.94V210h5.38v.95Zm.4-2V208h4.53v.92Zm1,10.74v.63h-1v-4.24h4.56v3.61Zm-.94-6.73v-.89h4.4v.89Zm0,2v-.9h4.4v.9Zm.94,3.83h2.54V217h-2.54Zm9.6-4.29v-.91h-4v4.09a3.16,3.16,0,0,0,.09,1c.06.11.26.18.59.21s.85.05,1.29.05,1,0,1.43-.05.76-.18.86-.43a13.13,13.13,0,0,0,.27-2.53l1.12.09c0,.66-.07,1.16-.1,1.5a6.82,6.82,0,0,1-.14,1,3.5,3.5,0,0,1-.21.68,1.22,1.22,0,0,1-.84.58l-.72.08c-.69,0-1.29.07-1.81.07s-1,0-1.65-.07a5.91,5.91,0,0,1-.61-.1,1.94,1.94,0,0,1-.36-.15.5.5,0,0,1-.22-.36,5,5,0,0,1-.08-.59c0-.2,0-.52,0-.94v-5.14h5.11v-3.47h-5.28v-1H640v6.31Z"/><path class="cls-5" d="M654.73,215.28v.88h-1v2.65h-1.1V218h-3.7v.67c0,.63-.09,1-.29,1.17a3.27,3.27,0,0,1-1.53.22c-.42,0-1.1,0-2.06-.07v-.9c.85.05,1.5.08,2,.08a2.37,2.37,0,0,0,.66-.05c.06,0,.09-.16.09-.38V218h-5.17v-.82h5.17v-1.06H642v-.88h5.78v-1h-5.17v-.85h5.17v-.78h-4.6V210h4.6v-.78h-5.64v-.88h5.64v-.95h1.19v.95h5.65v.88h-5.65V210h4.61v2.69h-4.61v.78h4.8v1.86Zm-10.49-3.42h3.51v-1.09h-3.51Zm4.7,0h3.52v-1.09h-3.52Zm0,3.42h3.7v-1h-3.7Zm0,1.94h3.7v-1.06h-3.7Z"/><path class="cls-5" d="M667.26,219.28a22.53,22.53,0,0,1-3.56.28A8.63,8.63,0,0,1,660,219a2,2,0,0,1-1.15-1.91q0-2.25,4.26-3.46a1.75,1.75,0,0,0-.53-.9,1.38,1.38,0,0,0-.86-.26,3.31,3.31,0,0,0-1.92.82,11.08,11.08,0,0,0-2.16,2.37l-.86-.55a27.4,27.4,0,0,0,2.84-4.91h-2.76v-.9H660c.21-.53.43-1.11.64-1.73l1,.24-.57,1.49h6.15v.9h-6.53c-.32.71-.66,1.44-1,2.2h0a4.06,4.06,0,0,1,2.21-.85,2.21,2.21,0,0,1,2.22,1.82c1-.22,2-.4,3.25-.56l.1.93c-1.29.17-2.34.35-3.15.53a17.2,17.2,0,0,1,.18,2.77h-1.09a21.15,21.15,0,0,0-.12-2.5c-2.25.66-3.38,1.47-3.38,2.46a1.45,1.45,0,0,0,.14.65,1.55,1.55,0,0,0,.53.52,3.15,3.15,0,0,0,1.17.37,12.33,12.33,0,0,0,2,.13,22.27,22.27,0,0,0,3.46-.31Z"/><path class="cls-5" d="M670.6,212.66h11.91v1h-4.86a5.53,5.53,0,0,1-4.71,6.09l-.31-1a4.56,4.56,0,0,0,3.88-5.12H670.6Zm1.6-2.84v-1h7.51v1Zm7.46-2.21.78-.41c.38.63.78,1.34,1.19,2.11l-.78.4C680.51,209.06,680.11,208.36,679.66,207.61Zm1.91-.23.79-.42c.38.63.79,1.36,1.22,2.17l-.79.39C682.37,208.74,682,208,681.57,207.38Z"/><path class="cls-5" d="M685.1,214.43v-1.08h11.54v1.08Z"/><path class="cls-5" d="M700.61,219.52l-.16-1a14.13,14.13,0,0,0,4.38-1,6.08,6.08,0,0,0,2.66-2.19c-1.57-.81-3.14-1.57-4.73-2.26l.5-1c1.54.68,3.12,1.43,4.76,2.26a11.26,11.26,0,0,0,.79-4.15H703a10,10,0,0,1-2.77,4.39l-.74-.68a9.34,9.34,0,0,0,2-2.72,10.41,10.41,0,0,0,1-3.36l1,0a13.19,13.19,0,0,1-.21,1.32H710v.43c0,3.18-.75,5.56-2.24,7.12S703.86,219.24,700.61,219.52Z"/><path class="cls-5" d="M713.53,217l-.86-.66,1.07-1.34,1.17-1.51c.37-.49.6-.78.68-.88a20.55,20.55,0,0,1,1.55-2,1.27,1.27,0,0,1,.91-.38,1.55,1.55,0,0,1,1,.34,20.94,20.94,0,0,1,1.77,1.77c1.57,1.71,3.22,3.42,4.93,5.14l-.8.83c-1.64-1.66-3.29-3.38-4.94-5.18-.66-.71-1.11-1.18-1.36-1.41a1,1,0,0,0-.6-.33c-.11,0-.27.11-.46.34s-.49.6-.88,1.13l-.17.24Q714.76,215.48,713.53,217Zm7.16-8,.92-.48c.52.85,1,1.69,1.45,2.53l-.93.46C721.79,210.82,721.31,210,720.69,209Zm2.1-.61.92-.48c.53.86,1,1.72,1.48,2.58l-.93.45Q723.66,209.79,722.79,208.35Z"/><path class="cls-5" d="M727.62,214.43v-1.08h11.54v1.08Z"/><path class="cls-5" d="M743.17,209.85v-1H752v1a15.05,15.05,0,0,1-3.06,4.64q2.05,1.89,4.23,4.16l-.77.74c-1.38-1.46-2.78-2.84-4.2-4.17a23.14,23.14,0,0,1-5.72,4l-.48-.91a23.13,23.13,0,0,0,5.44-3.82,15,15,0,0,0,3.37-4.64Z"/><path class="cls-5" d="M756,211.44v-.95h2.76c.27-1.16.47-2.16.61-3l1,.11c-.13.83-.32,1.79-.56,2.88h2.09a5,5,0,0,1,.64,0l.53.07a1.07,1.07,0,0,1,.38.16,1.12,1.12,0,0,1,.29.22,1.63,1.63,0,0,1,.19.35,1.51,1.51,0,0,1,.12.45c0,.13,0,.34.06.62s0,.54,0,.77v1a9.82,9.82,0,0,1-.63,4q-.62,1.35-1.59,1.35a7,7,0,0,1-2.87-.77l.34-.94a6.83,6.83,0,0,0,2.33.68c.21,0,.41-.15.61-.44a4.82,4.82,0,0,0,.51-1.49,12.93,12.93,0,0,0,.22-2.51v-.7c0-.15,0-.33,0-.54s0-.36,0-.44A1.28,1.28,0,0,0,763,212a1.91,1.91,0,0,0-.1-.24.43.43,0,0,0-.17-.15.55.55,0,0,0-.22-.11l-.31,0-.38,0h-2.18a46.07,46.07,0,0,1-2.81,8.12l-1-.38a47.49,47.49,0,0,0,2.71-7.74Zm8.79-1.87,1-.36a46.25,46.25,0,0,1,2.5,7.2l-1,.26A48.85,48.85,0,0,0,764.81,209.57Z"/><path class="cls-5" d="M772.83,210.86c-.19,1.39-.36,2.51-.51,3.37h0a7.74,7.74,0,0,1,2.27-1.2,7.57,7.57,0,0,1,2.49-.47c2.65,0,4,1.06,4,3.16a3.17,3.17,0,0,1-1.55,2.85,8.7,8.7,0,0,1-4.59,1,27.42,27.42,0,0,1-2.92-.17l.06-1c1.17.12,2.12.18,2.86.18q4.93,0,4.93-2.88c0-1.48-1-2.22-2.9-2.22a6.66,6.66,0,0,0-2.49.56,9.54,9.54,0,0,0-2.46,1.42l-1-.25c.24-1.36.48-2.86.71-4.48Zm0-2.5a48.28,48.28,0,0,0,6.35.43v1a48.79,48.79,0,0,1-6.46-.43Z"/><path class="cls-5" d="M790.57,210.3l1-.22a17.06,17.06,0,0,0,1.75,5.27,18,18,0,0,0,1.89-5.74H790.4V209h-.58v11.3h-1.09v-2.61c-1.79.34-3.51.61-5.16.79l-.1-.95,1-.12V209h-.85V208h7v.59h5.66v1a18.8,18.8,0,0,1-2.32,6.75A10.56,10.56,0,0,0,796.8,219l-.54.9a11.52,11.52,0,0,1-2.86-2.69,11.33,11.33,0,0,1-2.75,2.69l-.6-.9a9.78,9.78,0,0,0,2.69-2.71A17.7,17.7,0,0,1,790.57,210.3ZM788.73,209h-3.19v2h3.19ZM785.54,214h3.19v-2.17h-3.19Zm3.19,2.67v-1.82h-3.19v2.36C786.52,217.09,787.58,216.91,788.73,216.7Z"/><path class="cls-5" d="M800.35,213.28v6.95h-1.09v-6a8.64,8.64,0,0,1-1.33,1.28l-.35-1.08a11.77,11.77,0,0,0,3.3-3.7l.86.51A11,11,0,0,1,800.35,213.28Zm-2.15-2-.43-.92a10.37,10.37,0,0,0,3.19-3l.84.5A11.56,11.56,0,0,1,798.2,211.25Zm10,2.9h-6.55v-.86h9v.86h-1.36v1h1.46v1h-1.46v2.06a2.75,2.75,0,0,1-.28,1.6,2.39,2.39,0,0,1-1.52.3c-.24,0-.79,0-1.66-.07l0-.95c.8.05,1.31.07,1.53.07q.61,0,.72-.12c.08-.08.12-.34.12-.8v-2.09h-4.75a20.6,20.6,0,0,1,2.34,2.33l-.74.7a20.57,20.57,0,0,0-2.38-2.38l.67-.65h-1.79v-1h6.65Zm-5.8-6.24H810v4.58h-7.57Zm1.06,1.9h5.39v-1h-5.39Zm0,.82v1.06h5.39v-1.06Z"/><text class="cls-2" transform="translate(590.68 384.46)">➂枠に従って記事ページを生成<tspan x="42.52" y="24.8">（レンタリング</tspan><tspan class="cls-14" x="141.73" y="24.8">）</tspan></text><rect class="cls-16" x="573.35" y="354.49" width="233.29" height="74.11"/><path class="cls-5" d="M600.26,385.26a6.23,6.23,0,0,1-2.49.51,6.32,6.32,0,0,1-2.5-.51,6.61,6.61,0,0,1-2-1.36,6.5,6.5,0,0,1-1.36-2,6.32,6.32,0,0,1-.51-2.5,6.23,6.23,0,0,1,.51-2.49,6.5,6.5,0,0,1,1.36-2.05,6.64,6.64,0,0,1,2-1.37,6.32,6.32,0,0,1,2.5-.51,6.23,6.23,0,0,1,2.49.51,6.41,6.41,0,0,1,2,1.37,6.52,6.52,0,0,1,1.37,2.05,6.23,6.23,0,0,1,.51,2.49,6.32,6.32,0,0,1-.51,2.5,6.52,6.52,0,0,1-1.37,2A6.39,6.39,0,0,1,600.26,385.26Zm-6.47-1.93a5.61,5.61,0,1,0-1.65-4A5.43,5.43,0,0,0,593.79,383.33Zm3.85-4.64v0H598a2.38,2.38,0,0,1,1.68.55,2.06,2.06,0,0,1,.59,1.57,2.37,2.37,0,0,1-.74,1.9,3.07,3.07,0,0,1-2.12.65,5.13,5.13,0,0,1-2.09-.41v-1a4.6,4.6,0,0,0,2.05.51,2,2,0,0,0,1.34-.41,1.54,1.54,0,0,0,.47-1.22,1.12,1.12,0,0,0-.47-1,2.76,2.76,0,0,0-1.59-.34h-.82v-.81l2.48-2.34v0h-3.51v-.9h4.89v.9Z"/><path class="cls-5" d="M610.37,375.6v1H609c.51,1.13,1,2.29,1.53,3.49l-.79.65c-.46-1.17-.78-2-1-2.42v7.41h-1.05v-6.51a15.9,15.9,0,0,1-1.82,3.77l-.69-.82a18.63,18.63,0,0,0,2.47-5.58h-2v-.95h2.07V373h1.05v2.58Zm3.74,3.36h1.13v1.81h3.47v1h-3.48v4h-1.09v-4H610v-1h4.11Zm3.7-3,.89.09c0,.45,0,.8,0,1.06s0,.52,0,.79,0,.47-.07.6a1.42,1.42,0,0,1-.14.39.78.78,0,0,1-.19.27,1.1,1.1,0,0,1-.28.12,1,1,0,0,1-.37.07h-.52a1.93,1.93,0,0,1-1.06-.18c-.14-.13-.21-.46-.21-1v-2.66h-1.67a5.19,5.19,0,0,1-3.22,4.4l-.55-.87a5.29,5.29,0,0,0,1.93-1.53,3.5,3.5,0,0,0,.73-2h-2.41v-.92h2.55V373h1.08v1.52h2.65V378a.47.47,0,0,0,.05.28s.14,0,.33,0,.41-.1.46-.31A18.34,18.34,0,0,0,617.81,375.91Z"/><path class="cls-5" d="M622.5,373.71a23.77,23.77,0,0,0,0,11.29l-1.06.14a23.92,23.92,0,0,1,0-11.57Zm9,9.39.15.94a12.8,12.8,0,0,1-3.26.44,5.7,5.7,0,0,1-3.07-.71,2.17,2.17,0,0,1-1.12-1.91,2.75,2.75,0,0,1,.49-1.4A5.64,5.64,0,0,1,626,379l.77.65a5.22,5.22,0,0,0-1.1,1.18,2,2,0,0,0-.41,1,1.3,1.3,0,0,0,.81,1.21,5.12,5.12,0,0,0,2.31.42A13.37,13.37,0,0,0,631.53,383.1Zm-6.23-7.29v-1h6v1Z"/><path class="cls-5" d="M636.27,378.89v6.8h-1.09v-5.85a9,9,0,0,1-1.33,1.27l-.35-1.1a11.63,11.63,0,0,0,3.3-3.7l.85.51A11,11,0,0,1,636.27,378.89Zm-2.15-2.17-.43-.92a11.74,11.74,0,0,0,1.8-1.36,9.06,9.06,0,0,0,1.38-1.61l.85.5A11.7,11.7,0,0,1,634.12,376.72Zm2.51,8.47a27.8,27.8,0,0,0,1.84-7.24l1,.14c-.12,1-.28,2-.5,3.06a6.15,6.15,0,0,0,1,1.65,4.24,4.24,0,0,0,1.45,1v-7.37h-3.9v-.94h2.51c-.34-.76-.7-1.47-1.07-2.12l1-.37a24.13,24.13,0,0,1,1.22,2.49h1.68a12.14,12.14,0,0,0,1.53-2.55l1,.32a11.56,11.56,0,0,1-1.29,2.23h2.51v.94H642.6v3H646v.95h-3.4v3.76a17.45,17.45,0,0,0,3.52.28h.71l-.05,1H646a13.84,13.84,0,0,1-4.76-.64,5.07,5.07,0,0,1-2.58-2.27,25.28,25.28,0,0,1-1,3.12Z"/><path class="cls-5" d="M649.77,377.62a22.88,22.88,0,0,1,5.07-.86c2.86,0,4.3,1.2,4.3,3.59a3.59,3.59,0,0,1-1.83,3.26,10.76,10.76,0,0,1-5.45,1.1l-.05-1a10.31,10.31,0,0,0,4.72-.82,2.64,2.64,0,0,0,1.51-2.46,2.44,2.44,0,0,0-.8-2,3.85,3.85,0,0,0-2.48-.66,21.49,21.49,0,0,0-4.77.83Z"/><path class="cls-5" d="M662.89,374.62q5.63,0,11.47-.28l0,1a11.12,11.12,0,0,0-5.47,1.69,4,4,0,0,0-1.91,3.37,3.24,3.24,0,0,0,1.09,2.58,4.31,4.31,0,0,0,2.92.95,10.12,10.12,0,0,0,1.77-.16l.13,1a11.58,11.58,0,0,1-1.94.15,5.56,5.56,0,0,1-3.74-1.19,4.05,4.05,0,0,1-1.39-3.24,4.46,4.46,0,0,1,1.1-3,7.22,7.22,0,0,1,3.11-2.06v0c-2.82.12-5.21.17-7.19.17Z"/><path class="cls-5" d="M676.52,376.41v-1h5.39v1Zm.4-2v-.92h4.54v.92Zm1,10.75v.62h-1v-4.24h4.57v3.62ZM677,378.4v-.89h4.39v.89Zm0,2v-.91h4.39v.91Zm.94,3.82h2.53v-1.81H678Zm9.59-4.29V379h-4v4.1a3.21,3.21,0,0,0,.09,1c.06.1.25.17.59.2s.85.06,1.28.06,1,0,1.44-.06.76-.18.85-.43a12.63,12.63,0,0,0,.28-2.53l1.12.1c0,.65-.07,1.15-.1,1.49a8.18,8.18,0,0,1-.15,1,3.43,3.43,0,0,1-.2.68,1.16,1.16,0,0,1-.34.37,1,1,0,0,1-.5.21l-.72.08c-.69,0-1.3.07-1.82.07s-1,0-1.64-.07a3.82,3.82,0,0,1-.61-.1,1.94,1.94,0,0,1-.36-.15.5.5,0,0,1-.22-.36,3.38,3.38,0,0,1-.08-.58c0-.21,0-.53,0-1v-5.13h5.1v-3.47h-5.27v-1h6.36V380Z"/><path class="cls-5" d="M703.36,380.74v.88h-1v2.65h-1.09v-.76h-3.7v.66q0,1-.3,1.17a3.08,3.08,0,0,1-1.53.22c-.41,0-1.1,0-2-.07l0-.89c.85,0,1.51.07,2,.07a2.37,2.37,0,0,0,.66-.05c.06,0,.09-.16.09-.38v-.73h-5.17v-.83h5.17v-1.06H690.6v-.88h5.78v-1h-5.17v-.85h5.17v-.78h-4.61v-2.7h4.61v-.78h-5.64v-.87h5.64v-.95h1.19v.95h5.64v.87h-5.64v.78h4.61v2.7h-4.61v.78h4.79v1.85Zm-10.49-3.41h3.51v-1.09h-3.51Zm4.7,0h3.52v-1.09h-3.52Zm0,3.41h3.7v-1h-3.7Zm0,1.94h3.7v-1.06h-3.7Z"/><path class="cls-5" d="M704.6,381.79c.31-.38.67-.82,1.07-1.34l1.17-1.51.68-.88a24.17,24.17,0,0,1,1.55-2,1.29,1.29,0,0,1,.92-.38,1.63,1.63,0,0,1,1,.34c.28.23.87.82,1.76,1.77q2.37,2.56,4.93,5.15l-.79.82c-1.64-1.65-3.29-3.38-4.95-5.17q-1-1.08-1.35-1.41a1,1,0,0,0-.6-.34c-.12,0-.27.12-.46.34s-.49.61-.89,1.14c-.08.1-.13.18-.17.24q-1.77,2.36-3,3.87ZM716.36,374a2,2,0,0,1,0,2.78,1.88,1.88,0,0,1-1.38.57,2,2,0,0,1,0-3.93A1.89,1.89,0,0,1,716.36,374Zm-.6,2.17a1.06,1.06,0,0,0,.32-.78,1.1,1.1,0,0,0-.32-.78,1.08,1.08,0,0,0-.78-.34,1,1,0,0,0-.78.34,1.07,1.07,0,0,0-.33.78,1.13,1.13,0,0,0,1.11,1.11A1.07,1.07,0,0,0,715.76,376.19Z"/><path class="cls-5" d="M719.55,379.89v-1.07h11.54v1.07Z"/><path class="cls-5" d="M734.1,378.48l.19-1c1.66.28,3.19.57,4.61.86l-.2,1C736.45,378.91,734.92,378.62,734.1,378.48Zm.56,5.51c3-.27,5.24-1,6.7-2.25a9.63,9.63,0,0,0,2.91-5.9l1,.17a10.75,10.75,0,0,1-3.23,6.5c-1.63,1.4-4,2.24-7.25,2.51Zm0-9,.2-1c1.65.26,3.25.56,4.82.88l-.2,1C738.19,375.58,736.58,375.29,734.7,375Zm7.47-1.77.78-.41c.39.63.79,1.33,1.19,2.11l-.78.39C743,374.66,742.63,374,742.17,373.22Zm1.92-.23.79-.42c.38.63.79,1.35,1.22,2.16l-.79.4C744.89,374.35,744.48,373.63,744.09,373Z"/><path class="cls-5" d="M758.4,384.74a21.32,21.32,0,0,1-3.56.28,8.61,8.61,0,0,1-3.74-.6,2,2,0,0,1-1.16-1.91q0-2.25,4.27-3.45a1.81,1.81,0,0,0-.53-.91,1.4,1.4,0,0,0-.86-.26,3.28,3.28,0,0,0-1.92.83,10.3,10.3,0,0,0-2.16,2.36l-.87-.55a28.38,28.38,0,0,0,2.85-4.9H748v-.91h3.14c.22-.53.43-1.11.64-1.73l1,.24-.57,1.49h6.16v.91h-6.54c-.31.7-.66,1.44-1,2.19v0A4,4,0,0,1,753,377a2.21,2.21,0,0,1,2.23,1.81,31.91,31.91,0,0,1,3.24-.55l.1.92c-1.28.17-2.33.35-3.14.54a17.15,17.15,0,0,1,.18,2.76h-1.09a18.67,18.67,0,0,0-.13-2.49c-2.25.65-3.37,1.47-3.37,2.45a1.33,1.33,0,0,0,.14.65,1.51,1.51,0,0,0,.52.52,3.21,3.21,0,0,0,1.18.37,12.19,12.19,0,0,0,2,.13,21,21,0,0,0,3.46-.31Z"/><path class="cls-5" d="M767.49,373h1.13v2.31h4.79v1h-4.79v3.09h4.08v.95h-4.08v3.9h5.32v1H761.75v-1h5.74v-3.9h-3.94v-.95h3.94v-3.09h-3.56a20.31,20.31,0,0,1-1.45,3.25l-1-.51a22.14,22.14,0,0,0,2.14-5.74l1.06.18c-.11.54-.27,1.16-.48,1.85h3.25Z"/><path class="cls-5" d="M782.27,372.86h1.06c0,.56,0,1.09,0,1.6h3c-.76-.48-1.45-.88-2.07-1.21l.55-.76a25.51,25.51,0,0,1,2.47,1.46l-.39.51H788v1h-4.56a20.63,20.63,0,0,0,1.11,5.33,12.32,12.32,0,0,0,1.73-4.15l1,.28a12.82,12.82,0,0,1-2.27,5,10.54,10.54,0,0,0,.75,1.31,4.88,4.88,0,0,0,.66.8.83.83,0,0,0,.39.23c.34,0,.6-.89.78-2.66l1,.32c-.21,2.42-.77,3.63-1.66,3.63a2,2,0,0,1-1.26-.71,7.66,7.66,0,0,1-1.44-2,10.24,10.24,0,0,1-3.9,2.58l-.52-.89a9.47,9.47,0,0,0,3.94-2.71,20.61,20.61,0,0,1-1.42-6.34h-4.58v1.72h3.83a32.28,32.28,0,0,1-.2,4.79,1,1,0,0,1-.65.86,2.64,2.64,0,0,1-.74.07q-.45,0-2-.12l-.1-.94c.75.08,1.33.12,1.73.12s.72-.17.8-.51a24.36,24.36,0,0,0,.12-3.36h-2.78v.42a14,14,0,0,1-1.54,7.09l-.81-.92a10.38,10.38,0,0,0,1-2.88,22.19,22.19,0,0,0,.3-4v-3.31h5.61C782.28,374,782.27,373.42,782.27,372.86Z"/><path class="cls-5" d="M642.38,407.71a8.37,8.37,0,0,1,0-7.1,8.52,8.52,0,0,1,2.27-2.9h1.09a8.31,8.31,0,0,0,0,12.9h-1.09A8.62,8.62,0,0,1,642.38,407.71Z"/><path class="cls-5" d="M651.31,408.62a9.23,9.23,0,0,0,5-1.59,8.44,8.44,0,0,0,2.93-4.13l1,.39q-2.33,6.39-9.82,6.39h-.23V398.73h1.15Z"/><path class="cls-5" d="M663.63,399.89l.51-1c1.51.75,3,1.56,4.34,2.41l-.56,1C666.62,401.49,665.19,400.68,663.63,399.89Zm11,.55q-1.43,8.18-10.47,9l-.17-1.06a11.55,11.55,0,0,0,6.53-2.39,9.55,9.55,0,0,0,3.08-5.73Z"/><path class="cls-5" d="M678.37,409.78l-.16-1a14.13,14.13,0,0,0,4.38-1,6.06,6.06,0,0,0,2.67-2.2q-2.35-1.21-4.74-2.25l.5-.95q2.31,1,4.76,2.25a11,11,0,0,0,.79-4.15h-5.79a10.18,10.18,0,0,1-2.78,4.4l-.74-.68a9.23,9.23,0,0,0,2-2.73,10.1,10.1,0,0,0,1-3.35l1,.05a11.87,11.87,0,0,1-.22,1.32h6.69v.43c0,3.18-.74,5.55-2.24,7.12S681.62,409.51,678.37,409.78Z"/><path class="cls-5" d="M692.7,405v-6.23h1.13V405Zm7.4-6.23h1.16v3.63a7.68,7.68,0,0,1-1.62,5.34,8.46,8.46,0,0,1-5.27,2.27l-.24-1q3.32-.49,4.64-1.95a6.67,6.67,0,0,0,1.33-4.59Z"/><path class="cls-5" d="M706.15,399.89l.51-1c1.51.75,3,1.56,4.33,2.41l-.55,1C709.14,401.49,707.71,400.68,706.15,399.89Zm11,.55q-1.43,8.18-10.47,9l-.17-1.06A11.55,11.55,0,0,0,713,406a9.55,9.55,0,0,0,3.08-5.73Z"/><path class="cls-5" d="M728.34,398.15l.78-.41c.39.63.79,1.33,1.19,2.11l-.49.24c0,3.12-.76,5.44-2.26,7s-3.86,2.44-7.1,2.71l-.15-1q4.29-.39,6.23-2.22t2.11-5.67h-5.52a10.25,10.25,0,0,1-2.78,4.15l-.75-.68a9.53,9.53,0,0,0,3-6.08l1.06.07a8.93,8.93,0,0,1-.27,1.55h5.93C729,399.27,728.67,398.69,728.34,398.15Zm1.92-.24.79-.41c.43.7.83,1.41,1.22,2.15l-.79.4C731.06,399.26,730.65,398.55,730.26,397.91Z"/><path class="cls-5" d="M737.41,400.61a8.47,8.47,0,0,1,0,7.1,8.78,8.78,0,0,1-2.28,2.9H734a8.31,8.31,0,0,0,0-12.9h1.09A8.68,8.68,0,0,1,737.41,400.61Z"/><text class="cls-2" transform="translate(43.93 356.04)">④UR<tspan class="cls-17" x="32.64" y="0">L</tspan><tspan x="44.48" y="0">をリスポーン</tspan><tspan x="22.24" y="24.8">（ユーザー</tspan><tspan class="cls-3" x="93.1" y="24.8">）</tspan></text><rect class="cls-16" x="26.59" y="325.92" width="163.72" height="74.27"/><path class="cls-5" d="M53.51,356.84a6.32,6.32,0,0,1-2.5.51,6.23,6.23,0,0,1-2.49-.51,6.39,6.39,0,0,1-2.05-1.36,6.64,6.64,0,0,1-1.37-2.05,6.32,6.32,0,0,1-.51-2.5,6.23,6.23,0,0,1,.51-2.49A6.32,6.32,0,0,1,48.52,345a6.23,6.23,0,0,1,2.49-.51,6.32,6.32,0,0,1,2.5.51,6.48,6.48,0,0,1,2,1.37,6.51,6.51,0,0,1,1.88,4.54,6.32,6.32,0,0,1-.51,2.5,6.29,6.29,0,0,1-3.41,3.41ZM47,354.91a5.61,5.61,0,1,0-1.65-4A5.41,5.41,0,0,0,47,354.91Zm5.21-2.69h1.27v.88H52.25v1.76H51.17V353.1H47.41v-.88L51.17,347h1.08Zm-1.08,0v-3.74h0l-2.67,3.71v0Z"/><path class="cls-5" d="M63,355.21c1.77,0,2.65-1.06,2.65-3.19v-6.33h1.11V352a4.57,4.57,0,0,1-1,3.14,4.21,4.21,0,0,1-5.61,0,4.53,4.53,0,0,1-1-3.14v-6.28h1.15V352C60.31,354.15,61.19,355.21,63,355.21Z"/><path class="cls-5" d="M69,356V345.76a15.9,15.9,0,0,1,2.65-.21,5.07,5.07,0,0,1,3,.73,2.39,2.39,0,0,1,1,2.07,2.76,2.76,0,0,1-.59,1.8,3,3,0,0,1-1.64,1v0A3.65,3.65,0,0,1,74.68,353l1.25,3H74.75l-1.22-3a2.83,2.83,0,0,0-.8-1.26,2.91,2.91,0,0,0-1.48-.25H70.12V356Zm1.14-5.42h1.13a4.47,4.47,0,0,0,2.48-.54,1.86,1.86,0,0,0,.8-1.63q0-2-3-2a7,7,0,0,0-1.41.13Z"/><path class="cls-5" d="M79,345.69v9.38H84v1H77.77V345.69Z"/><path class="cls-5" d="M100.22,356.32a21.32,21.32,0,0,1-3.56.28,8.63,8.63,0,0,1-3.75-.6,2,2,0,0,1-1.15-1.91q0-2.25,4.27-3.46a1.75,1.75,0,0,0-.54-.9,1.35,1.35,0,0,0-.85-.26,3.33,3.33,0,0,0-1.92.82,10.85,10.85,0,0,0-2.17,2.37l-.86-.55a28.38,28.38,0,0,0,2.85-4.9H89.78v-.91h3.14c.22-.53.43-1.11.64-1.73l1,.24L94,346.3h6.15v.91H93.63c-.31.7-.66,1.44-1,2.19v0a4,4,0,0,1,2.21-.85,2.21,2.21,0,0,1,2.23,1.81,31.91,31.91,0,0,1,3.24-.55l.1.92q-1.92.25-3.15.54a15.92,15.92,0,0,1,.19,2.76H96.34a20.54,20.54,0,0,0-.13-2.49c-2.25.65-3.37,1.47-3.37,2.45a1.33,1.33,0,0,0,.14.65,1.51,1.51,0,0,0,.52.52,3.21,3.21,0,0,0,1.18.37,12.19,12.19,0,0,0,2,.13,21.11,21.11,0,0,0,3.46-.31Z"/><path class="cls-5" d="M105.38,351.74V345.5h1.13v6.24Zm7.4-6.24h1.16v3.63a7.73,7.73,0,0,1-1.62,5.35q-1.6,1.77-5.27,2.26l-.24-1q3.31-.49,4.64-1.95a6.65,6.65,0,0,0,1.33-4.6Z"/><path class="cls-5" d="M119.44,346.89v-1h8.79v1a15.05,15.05,0,0,1-3.06,4.64c1.37,1.26,2.77,2.65,4.22,4.17l-.77.73c-1.38-1.45-2.77-2.84-4.19-4.17a23.12,23.12,0,0,1-5.73,4l-.48-.91a22.93,22.93,0,0,0,5.44-3.82,15,15,0,0,0,3.38-4.64Z"/><path class="cls-5" d="M134.12,349.76l1,.36q-1.09,2.52-2.42,4.89l-1-.43C132.6,353,133.4,351.4,134.12,349.76Zm-2-2.72h5.34V344.8h1.13V347h3.21a1.81,1.81,0,0,1-.51-1.28,1.84,1.84,0,0,1,3.68,0,1.75,1.75,0,0,1-.37,1.11,1.73,1.73,0,0,1-1,.66v.5h-5.06v6.83a2.22,2.22,0,0,1-.28,1.39,1.88,1.88,0,0,1-1.32.31,15.38,15.38,0,0,1-2.24-.2l.12-1a10.91,10.91,0,0,0,1.91.17q.47,0,.57-.12a1.36,1.36,0,0,0,.11-.71V348H132.1Zm8.5,3.08,1-.42c.87,1.64,1.68,3.31,2.42,5l-1,.42Q141.72,352.26,140.6,350.12Zm3.24-3.63a1,1,0,1,0-.73.3A1,1,0,0,0,143.84,346.49Z"/><path class="cls-5" d="M146.41,351.47v-1.08H158v1.08Z"/><path class="cls-5" d="M161.35,346.67l.51-1q2.26,1.14,4.34,2.41l-.55,1Q163.69,347.85,161.35,346.67Zm11,.55q-1.44,8.16-10.48,9l-.17-1.07a11.52,11.52,0,0,0,6.53-2.38,9.55,9.55,0,0,0,3.08-5.74Z"/><path class="cls-5" d="M75.34,379.29a8.37,8.37,0,0,1,0-7.1,8.34,8.34,0,0,1,2.28-2.9h1.09a8.28,8.28,0,0,0,0,12.89H77.62A8.4,8.4,0,0,1,75.34,379.29Z"/><path class="cls-5" d="M83,371h8.09l-.69,8.56h2.9v1H81.51v-1h7.71l.64-7.57H83Z"/><path class="cls-5" d="M95.83,376.27V375.2h11.53v1.07Z"/><path class="cls-5" d="M109.35,372.52h2.41V370h1.06v2.55h5V370h1.11v2.55h2.73v1h-2.73v.91c0,2.36-.5,4.06-1.48,5.11s-2.71,1.68-5.17,1.92l-.2-1a13.16,13.16,0,0,0,2.77-.54,4.25,4.25,0,0,0,1.75-1.09,3.81,3.81,0,0,0,1-1.76,10.86,10.86,0,0,0,.27-2.65v-.91h-5v3.22h-1.06v-3.22h-2.41Zm9.76-3.19.83-.28c.37.83.69,1.57,1,2.22l-.84.27C119.84,371,119.53,370.25,119.11,369.33Zm1.75-.24.83-.29c.42.93.74,1.69,1,2.29l-.85.25C121.48,370.48,121.16,369.73,120.86,369.09Z"/><path class="cls-5" d="M124.17,376.27V375.2h11.54v1.07Z"/><path class="cls-5" d="M142,372.19a8.47,8.47,0,0,1,0,7.1,8.65,8.65,0,0,1-2.28,2.89h-1.09a8.28,8.28,0,0,0,0-12.89h1.09A8.58,8.58,0,0,1,142,372.19Z"/><line class="cls-18" x1="189.68" y1="283.56" x2="270.28" y2="283.56"/><polygon class="cls-19" points="264.64 288.37 269.45 283.56 264.64 278.76 268.72 278.76 273.52 283.56 268.72 288.37 264.64 288.37"/><line class="cls-18" x1="521.1" y1="180" x2="491.49" y2="254.97"/><polygon class="cls-19" points="489.1 247.95 491.8 254.19 498.04 251.48 496.54 255.28 490.3 257.98 487.6 251.75 489.1 247.95"/><path class="cls-18" d="M574.77,287.66c73.8,0,73,11,73,24.67s.83,24.67-73,24.67a384.16,384.16,0,0,1-38.95-1.58"/><polygon class="cls-19" points="541.92 331.17 536.66 335.47 540.96 340.73 536.9 340.32 532.6 335.06 537.86 330.76 541.92 331.17"/><line class="cls-18" x1="282.33" y1="337" x2="213.58" y2="361.42"/><polygon class="cls-19" points="217.29 355.01 214.37 361.14 220.51 364.06 216.66 365.43 210.52 362.51 213.44 356.37 217.29 355.01"/><text class="cls-20" transform="translate(30 94.56)">CMS</text><rect class="cls-21" x="13.12" y="49.82" width="113.67" height="63.11"/><path class="cls-1" d="M45.58,72.77a7.92,7.92,0,0,0-6,2.28,8.76,8.76,0,0,0-2.18,6.32,8.6,8.6,0,0,0,2.27,6.29A7.93,7.93,0,0,0,45.58,90a11.31,11.31,0,0,0,6.21-2l1.74,4.49A14.94,14.94,0,0,1,45,94.92q-6.28,0-10.06-3.65t-3.78-9.9q0-6.33,3.67-9.94T45,67.82a14.94,14.94,0,0,1,8.57,2.45l-1.74,4.49A11.31,11.31,0,0,0,45.58,72.77Z"/><path class="cls-1" d="M79.08,78.41H79L74.38,88.53H68.81L64.19,78.41h-.07V94.56H58.3V68.18h6.29l7,15.54h.07l7-15.54H85V94.56h-6Z"/><path class="cls-1" d="M107.05,74.32a16.14,16.14,0,0,0-7.23-1.7,4.75,4.75,0,0,0-2.85.73,2.3,2.3,0,0,0-1,2c0,1.35,1,2.31,3,2.89q5.39,1.49,7.57,3.54a7.72,7.72,0,0,1-.42,11.17c-1.73,1.35-4.3,2-7.69,2a17.17,17.17,0,0,1-4.74-.7,14.42,14.42,0,0,1-4.12-1.83l1.45-4.8a13.41,13.41,0,0,0,7.66,2.53,4.43,4.43,0,0,0,2.84-.78,2.68,2.68,0,0,0,1-2.19,2.45,2.45,0,0,0-.77-1.88A7.2,7.2,0,0,0,99,84c-3.3-1-5.68-2.14-7.12-3.52a6.84,6.84,0,0,1-2.17-5.15,6.58,6.58,0,0,1,2.58-5.46c1.73-1.35,4.14-2,7.25-2a19.94,19.94,0,0,1,8.6,1.73Z"/></g></g></svg>