<svg xmlns="http://www.w3.org/2000/svg" viewBox="0 0 841.89 595.28"><defs><style>.cls-1{fill:#fff;}.cls-2{font-size:14.17px;font-family:Mplus1p-Regular, "Mplus 1p";}.cls-17,.cls-2,.cls-5{fill:#231815;}.cls-3{letter-spacing:-0.5em;}.cls-4{fill:#b5b5b6;}.cls-6{letter-spacing:0.25em;}.cls-7{letter-spacing:0em;}.cls-8{letter-spacing:-0.5em;}.cls-9{fill:#c9caca;}.cls-10{letter-spacing:-0.02em;}.cls-11{letter-spacing:-0.01em;}.cls-12{letter-spacing:-0.03em;}.cls-13,.cls-15{fill:none;stroke-miterlimit:10;stroke-width:2.83px;}.cls-13{stroke:#231815;}.cls-14{fill:#bcd36d;}.cls-15{stroke:#af3323;}.cls-16{fill:#af3323;}.cls-17{font-size:36.14px;font-family:Mplus1p-ExtraBold, "Mplus 1p";font-weight:800;}.cls-18{letter-spacing:-0.02em;}.cls-19{letter-spacing:-0.01em;}.cls-20{fill:#7e318e;}.cls-21{letter-spacing:0.25em;}</style></defs><g id="レイヤー_2" data-name="レイヤー 2"><g id="cms"><rect class="cls-1" width="841.89" height="595.28"/><text class="cls-2" transform="translate(516.78 68.34)">コンテンツ記事入力<tspan x="28.35" y="24.8">（管理者</tspan><tspan class="cls-3" x="85.04" y="24.8">）</tspan></text><rect class="cls-4" x="500.86" y="38.69" width="159.77" height="73.8"/><path class="cls-5" d="M518.86,58.46h9.92V68h-9.92V67h8.83V59.45h-8.83Z"/><path class="cls-5" d="M533,59l.51-1c1.52.75,3,1.56,4.34,2.41l-.55,1Q535.37,60.17,533,59Zm11,.55q-1.44,8.17-10.47,9l-.17-1.06A11.52,11.52,0,0,0,539.87,65,9.55,9.55,0,0,0,543,59.3Z"/><path class="cls-5" d="M546.26,61.86h11.9v1H553.3A5.54,5.54,0,0,1,548.6,69l-.32-1a5.49,5.49,0,0,0,3-1.76,5.57,5.57,0,0,0,.89-3.35h-5.91Zm1.6-2.83V58h8.7v1Z"/><path class="cls-5" d="M561.38,59l.51-1c1.51.75,3,1.56,4.34,2.41l-.56,1Q563.72,60.17,561.38,59Zm11,.55q-1.43,8.17-10.47,9l-.17-1.06A11.55,11.55,0,0,0,568.22,65a9.55,9.55,0,0,0,3.08-5.73Z"/><path class="cls-5" d="M575,58.83l1-.25c.43,1.39.85,3,1.28,4.7l-1.08.24C575.84,61.76,575.42,60.2,575,58.83Zm11.11-.67a15.89,15.89,0,0,1-1,5.67,7,7,0,0,1-2.79,3.31,13.51,13.51,0,0,1-5,1.63l-.2-1a15,15,0,0,0,3.66-1,6.27,6.27,0,0,0,2.4-1.77,7.06,7.06,0,0,0,1.4-2.79,19.22,19.22,0,0,0,.52-4.11Zm-7.21.15,1.08-.24c.42,1.49.85,3.13,1.27,4.91l-1.07.23C579.75,61.42,579.33,59.78,578.91,58.31Z"/><path class="cls-5" d="M588.45,60.29v-.95h5.38v.95Zm.4-2v-.92h4.53v.92Zm1,10.74v.62h-1V65.41h4.56V69Zm-.94-6.73V61.4h4.4v.89Zm0,2v-.91h4.4v.91Zm.94,3.83h2.54V66.31h-2.54Zm9.6-4.3v-.9h-4V67a3.16,3.16,0,0,0,.09,1c.06.11.26.18.59.21s.85,0,1.29,0,1,0,1.43,0,.76-.19.86-.44a13,13,0,0,0,.27-2.53l1.12.1c0,.65-.07,1.15-.1,1.5a6.51,6.51,0,0,1-.14,1,3.08,3.08,0,0,1-.21.68,1.28,1.28,0,0,1-.84.59c-.17,0-.41,0-.72.07-.69,0-1.29.07-1.81.07s-1,0-1.65-.07a3.06,3.06,0,0,1-.61-.1,1.42,1.42,0,0,1-.36-.14.55.55,0,0,1-.22-.37c0-.18-.06-.37-.08-.58s0-.52,0-1V62h5.11V58.49H594.2v-1h6.37v6.3Z"/><path class="cls-5" d="M615.28,64.63v.88h-1v2.65h-1.1v-.77H609.5v.67q0,.94-.3,1.17a3.27,3.27,0,0,1-1.53.22c-.42,0-1.1,0-2.06-.07v-.9c.85,0,1.5.07,1.95.07a2,2,0,0,0,.66,0c.06,0,.1-.15.1-.37v-.74h-5.18v-.82h5.18V65.51h-5.79v-.88h5.79v-1h-5.18v-.85h5.18V62H603.7V59.3h4.61v-.78h-5.65v-.88h5.65v-1h1.19v1h5.64v.88H609.5v.78h4.6V62h-4.6v.78h4.79v1.86Zm-10.49-3.42h3.52V60.12h-3.52Zm4.71,0H613V60.12H609.5Zm0,3.42h3.69v-1H609.5Zm0,1.94h3.69V65.51H609.5Z"/><path class="cls-5" d="M622.9,58.42H619v-1h5v1.32a12.26,12.26,0,0,0,1.47,5.93,9.12,9.12,0,0,0,3.84,3.93l-.58.85a8.64,8.64,0,0,1-3.24-2.84,13.16,13.16,0,0,1-2.07-4.43A13.3,13.3,0,0,1,621,66.53a10.8,10.8,0,0,1-3.66,2.93l-.59-.85a11,11,0,0,0,4.37-4,10.09,10.09,0,0,0,1.74-5.46Z"/><path class="cls-5" d="M635.59,56.7h1.13c0,.8,0,1.55,0,2.26h6c0,1.54,0,2.84,0,3.9s-.09,2-.17,2.73a15,15,0,0,1-.3,1.81,2.82,2.82,0,0,1-.48,1,1.63,1.63,0,0,1-.65.48,2.9,2.9,0,0,1-.86.11q-1.2,0-2.82-.15V67.82c1.06.11,1.92.17,2.57.17a1,1,0,0,0,.71-.25,2.42,2.42,0,0,0,.49-1.06,12.48,12.48,0,0,0,.32-2.44c.06-1.07.1-2.5.11-4.29h-4.88a15.89,15.89,0,0,1-1.22,5.63,10.34,10.34,0,0,1-3.13,3.71l-.75-.84a10.68,10.68,0,0,0,2.06-2,8.18,8.18,0,0,0,1.26-2.6,17.34,17.34,0,0,0,.65-3.89h-3.91V59h3.95C635.57,58,635.59,57.28,635.59,56.7Z"/><path class="cls-5" d="M554.3,91.59a8.37,8.37,0,0,1,0-7.1,8.52,8.52,0,0,1,2.27-2.9h1.1a8.29,8.29,0,0,0,0,12.9h-1.1A8.52,8.52,0,0,1,554.3,91.59Z"/><path class="cls-5" d="M559.88,84.3a7.86,7.86,0,0,0,2.25-3l1,.24a6.91,6.91,0,0,1-.41.88h3.77v.92h-2.38c.18.45.37.92.56,1.43l-1,.32c-.27-.72-.5-1.3-.69-1.75h-.82A9,9,0,0,1,560.61,85Zm6.23-.47a6.86,6.86,0,0,0,2.31-2.55l1,.24a5.25,5.25,0,0,1-.48.88h3.76v.92h-2.53c.18.45.37.92.56,1.43l-1,.32-.66-1.75h-.81A7.91,7.91,0,0,1,567,84.47v.84h5.54v2.77h-1.08V86.17H561.32v1.91h-1.08V85.31h5.6v-.93h.81Zm-2.82,9.92v.63h-1.12v-7.5h8.36v2.93h-7.24v.81h8.05v3.76h-1.1v-.63Zm0-4.79h6.14v-1.2h-6.14Zm0,3.94h7V91.49h-7Z"/><path class="cls-5" d="M577.93,90.69l.14.94a38.54,38.54,0,0,1-4,1.46l-.14-1c.68-.21,1.19-.38,1.54-.5v-4h-1.34v-1h1.34V83.48H574v-1h3.87v1h-1.29v3.24h1.22v1h-1.22v3.55C577.07,91.06,577.52,90.87,577.93,90.69ZM583,88.47v1.7h3.76v.88H583V93h4v.93h-9.44V93h4.36V91.05h-3.54v-.88h3.54v-1.7h-3.5V82.05h8.11v6.42Zm-3.53-3.66h2.44V82.94h-2.44Zm2.44,2.78v-2h-2.44v2ZM583,84.81h2.45V82.94H583Zm0,2.78h2.45v-2H583Z"/><path class="cls-5" d="M593.86,87.93h6v6.35h-1.1v-.61h-6.72v.61H591v-5c-.78.33-1.59.62-2.42.88l-.34-1a27.07,27.07,0,0,0,6.18-2.68h-6.14V85.6h5.39V83.75h-4.06v-.91h4.06V81.49h1.13v1.35h3.5v.75A13.86,13.86,0,0,0,599.73,82l.82.6a18.37,18.37,0,0,1-3.11,3h3.76v.92h-5A23.92,23.92,0,0,1,593.86,87.93Zm-1.78,2.41h6.72V88.85h-6.72Zm0,.86v1.56h6.72V91.2Zm6-7.45h-3.34V85.6h1.05A19.49,19.49,0,0,0,598.11,83.75Z"/><path class="cls-5" d="M606.81,84.49a8.37,8.37,0,0,1,0,7.1,8.52,8.52,0,0,1-2.27,2.9h-1.1a8.29,8.29,0,0,0,0-12.9h1.1A8.52,8.52,0,0,1,606.81,84.49Z"/><text class="cls-2" transform="translate(134.64 254.03)">ソースコードホスティングサービス<tspan x="59.1" y="24.8">（GitHu</tspan><tspan class="cls-6" x="113.41" y="24.8">b</tspan><tspan class="cls-7" x="125.15" y="24.8">など</tspan><tspan class="cls-8" x="153.49" y="24.8">）</tspan></text><rect class="cls-9" x="118.33" y="224.11" width="259.55" height="74.07"/><path class="cls-5" d="M136.33,244.18l1-.44c.81,1.69,1.54,3.29,2.2,4.82l-1.08.41C137.71,247.13,137,245.54,136.33,244.18Zm10.83-.56a16.75,16.75,0,0,1-1.13,5.66,7.28,7.28,0,0,1-2.78,3.32,13.46,13.46,0,0,1-5,1.71l-.2-1a12.8,12.8,0,0,0,4.55-1.58,6.42,6.42,0,0,0,2.49-3,15.64,15.64,0,0,0,1-5.18Z"/><path class="cls-5" d="M150.14,249.46v-1.07h11.53v1.07Z"/><path class="cls-5" d="M165.68,244.88v-1h8.79v1a15.05,15.05,0,0,1-3.06,4.64c1.37,1.27,2.78,2.65,4.22,4.17l-.76.73q-2.07-2.17-4.2-4.16a23.3,23.3,0,0,1-5.72,4l-.49-.9a23.52,23.52,0,0,0,5.45-3.83,15.15,15.15,0,0,0,3.37-4.64Z"/><path class="cls-5" d="M179.25,244.15h9.92v9.55h-9.92v-1h8.83v-7.57h-8.83Z"/><path class="cls-5" d="M192.65,249.46v-1.07h11.54v1.07Z"/><path class="cls-5" d="M210,243.3v4.14a66.23,66.23,0,0,1,7.92,2.43l-.35,1a67.07,67.07,0,0,0-7.57-2.37v6.29h-1.13V243.3Zm3.16.78.92-.49c.48.8,1,1.65,1.45,2.56l-.92.45C214.23,245.89,213.75,245.05,213.16,244.08Zm2.1-.6.92-.49c.53.86,1,1.72,1.49,2.57l-.94.47Q216.15,244.94,215.26,243.48Z"/><path class="cls-5" d="M223,247.71l1,.36q-1.11,2.52-2.43,4.89l-1-.45Q222,250.1,223,247.71Zm-2-2.94h5.34v-2h1.14v2h5.06v1h-5.06v7a2.24,2.24,0,0,1-.29,1.4,1.94,1.94,0,0,1-1.32.3,15.17,15.17,0,0,1-2.23-.18l.11-1a10.94,10.94,0,0,0,1.91.16c.32,0,.52,0,.58-.12a1.38,1.38,0,0,0,.1-.7v-6.91H221Zm8.5,3.3,1-.42c.87,1.64,1.68,3.31,2.42,5l-1,.41Q230.67,250.31,229.5,248.07Z"/><path class="cls-5" d="M236.55,244.88v-1h8.78v1a15.05,15.05,0,0,1-3.06,4.64c1.37,1.27,2.78,2.65,4.23,4.17l-.77.73q-2.07-2.17-4.19-4.16a23.36,23.36,0,0,1-5.73,4l-.48-.9a23.45,23.45,0,0,0,5.44-3.83,15,15,0,0,0,3.37-4.64Z"/><path class="cls-5" d="M249.16,247.55h11.91v1H256.2a5.53,5.53,0,0,1-4.7,6.1l-.31-1a5.63,5.63,0,0,0,3-1.77,5.55,5.55,0,0,0,.88-3.35h-5.91Zm1.6-2.84v-1h8.7v1Z"/><path class="cls-5" d="M264.69,249.82a15.58,15.58,0,0,0,4.75-1.48,12.76,12.76,0,0,0,3.76-2.69l.64.72a13.22,13.22,0,0,1-3.36,2.53v5.76h-1.09v-5.23a16.43,16.43,0,0,1-4.54,1.35Z"/><path class="cls-5" d="M278.46,244.66l.51-1q2.26,1.14,4.33,2.41l-.55,1Q280.8,245.84,278.46,244.66Zm11,.55q-1.43,8.16-10.47,9l-.17-1.06a11.56,11.56,0,0,0,6.52-2.39,9.56,9.56,0,0,0,3.09-5.74Z"/><path class="cls-5" d="M300.65,242.91l.78-.41c.39.64.78,1.34,1.19,2.12l-.5.24c0,3.11-.76,5.44-2.25,7s-3.86,2.44-7.1,2.71l-.16-1q4.31-.41,6.24-2.22c1.29-1.21,2-3.11,2.11-5.68h-5.52a10.28,10.28,0,0,1-2.78,4.16l-.75-.68a9.66,9.66,0,0,0,3-6.08l1.06.07a8.81,8.81,0,0,1-.27,1.54h5.93C301.32,244,301,243.45,300.65,242.91Zm1.91-.24.8-.41c.42.7.83,1.42,1.22,2.16l-.8.39C303.37,244,303,243.32,302.56,242.67Z"/><path class="cls-5" d="M305.67,245.56h2.49V243h1.07v2.55h5.1V243h1.12v2.55h2.49v1h-2.49v.9q0,3.56-1.49,5.11c-1,1.05-2.72,1.69-5.17,1.92l-.19-1q3.31-.33,4.52-1.61c.81-.85,1.21-2.33,1.21-4.43v-.9h-5.1v3.21h-1.07v-3.21h-2.49Z"/><path class="cls-5" d="M320.21,249.46v-1.07h11.54v1.07Z"/><path class="cls-5" d="M336.28,243.58v4.31a49.53,49.53,0,0,0,8.45-2.17l.31,1a49.41,49.41,0,0,1-8.76,2.24V251a1.85,1.85,0,0,0,2.33,2.33c2.2,0,4.3-.07,6.32-.22l0,1c-2.24.14-4.38.21-6.44.21a3.82,3.82,0,0,1-2.65-.69,3.76,3.76,0,0,1-.7-2.65v-7.43Zm6-.48.85-.45c.42.69.86,1.47,1.32,2.33l-.85.42C343.23,244.63,342.79,243.86,342.32,243.1Zm2-.54.87-.45c.59,1,1.05,1.77,1.36,2.36l-.88.43Q345,243.7,344.3,242.56Z"/><path class="cls-5" d="M349.93,244.88v-1h8.79v1a15.05,15.05,0,0,1-3.06,4.64c1.37,1.27,2.77,2.65,4.22,4.17l-.77.73c-1.38-1.45-2.77-2.84-4.19-4.16a23.36,23.36,0,0,1-5.73,4l-.48-.9a23.24,23.24,0,0,0,5.44-3.83,15.19,15.19,0,0,0,3.38-4.64Z"/><path class="cls-5" d="M202.92,277.28a8.47,8.47,0,0,1,0-7.1,8.68,8.68,0,0,1,2.28-2.9h1.09a8.29,8.29,0,0,0,0,12.9H205.2A8.78,8.78,0,0,1,202.92,277.28Z"/><path class="cls-5" d="M213.91,269.26a4.18,4.18,0,0,0-3.14,1.19,4.45,4.45,0,0,0-1.14,3.21,4.09,4.09,0,0,0,4.38,4.39,5.64,5.64,0,0,0,2.31-.47v-3.87h-3.58v-.9h4.68v5.38a7.92,7.92,0,0,1-3.51.78,5.4,5.4,0,0,1-3.94-1.44,5.17,5.17,0,0,1-1.48-3.87,5,5,0,0,1,5.34-5.32,6.1,6.1,0,0,1,3.2.85l-.38.84A5.23,5.23,0,0,0,213.91,269.26Z"/><path class="cls-5" d="M220.11,269.76V268.2h1.09v1.56Zm0,9.07v-7.37h1.09v7.37Z"/><path class="cls-5" d="M226.23,269.05v2.69H229v.85h-2.79v3.87a2.27,2.27,0,0,0,.27,1.33,1.25,1.25,0,0,0,1,.33,3.26,3.26,0,0,0,1.24-.24l.17.84a4.64,4.64,0,0,1-1.56.25,2.28,2.28,0,0,1-1.7-.52,2.56,2.56,0,0,1-.49-1.79v-4.07h-1.63v-.85h1.63v-2.69Z"/><path class="cls-5" d="M232.42,268.48v4.33h5.39v-4.33h1.13v10.35h-1.13v-5.12h-5.39v5.12h-1.13V268.48Z"/><path class="cls-5" d="M242.16,271.46V276a2.57,2.57,0,0,0,.38,1.59,1.53,1.53,0,0,0,1.25.45,2,2,0,0,0,1.5-.8,2.83,2.83,0,0,0,.67-1.88v-3.94h1v7.37h-1v-1.32h0a3.19,3.19,0,0,1-1.09,1.07,2.71,2.71,0,0,1-1.42.39,2.14,2.14,0,0,1-1.75-.67,3.39,3.39,0,0,1-.56-2.16v-4.68Z"/><path class="cls-5" d="M252.63,279a2.56,2.56,0,0,1-2.4-1.39h0l0,1.25h-1V268.2h1v4.46h0a2.58,2.58,0,0,1,2.38-1.34,2.68,2.68,0,0,1,2.19,1,4.45,4.45,0,0,1,.79,2.84,4.38,4.38,0,0,1-.81,2.83A2.64,2.64,0,0,1,252.63,279Zm2-3.83a3.66,3.66,0,0,0-.57-2.21,1.9,1.9,0,0,0-1.61-.76,1.94,1.94,0,0,0-1.58.76,3.36,3.36,0,0,0-.6,2.12v.19a3.33,3.33,0,0,0,.6,2.13,2,2,0,0,0,1.58.75,1.9,1.9,0,0,0,1.59-.77A3.61,3.61,0,0,0,254.59,275.14Z"/><path class="cls-5" d="M260.83,270.37v-.94h2.62c.25-.84.46-1.56.62-2.15l1,.14c-.16.65-.35,1.32-.55,2h2.66v.94h-3a74.44,74.44,0,0,1-2.73,7.2l-1-.34q1.55-3.54,2.62-6.86Zm12.16.28a18.45,18.45,0,0,0-2.92-.25v5.21a19.07,19.07,0,0,1,3,2.1l-.65.77a27.94,27.94,0,0,0-2.38-1.75,2.8,2.8,0,0,1-.78,2.09,3.48,3.48,0,0,1-2.3.62,3.43,3.43,0,0,1-2.22-.65A2.14,2.14,0,0,1,264,277a2,2,0,0,1,.79-1.7,3.54,3.54,0,0,1,2.23-.61,5.76,5.76,0,0,1,2,.42v-5.71a25.87,25.87,0,0,1,4.08.29Zm-4,5.5a4.79,4.79,0,0,0-2-.51c-1.32,0-2,.46-2,1.39a1.34,1.34,0,0,0,.51,1.11,2.36,2.36,0,0,0,1.47.41,2.25,2.25,0,0,0,1.6-.44,2.23,2.23,0,0,0,.44-1.62Z"/><path class="cls-5" d="M285.49,272a27.74,27.74,0,0,0-6.54,2.12q-2,1.08-2,2.37c0,1.39,1.41,2.09,4.21,2.09a32.06,32.06,0,0,0,4.34-.33l.11,1a33,33,0,0,1-4.45.33q-5.34,0-5.34-3.08c0-1.23.87-2.31,2.62-3.23q-.62-2.33-1.11-5.2l1.11-.17c.26,1.58.61,3.2,1,4.87a36.77,36.77,0,0,1,5.82-1.74Zm-3-4,.85-.46q.64,1.05,1.32,2.34l-.85.41C283.42,269.52,283,268.75,282.51,268Zm2-.54.86-.45c.6,1,1.05,1.77,1.36,2.36l-.88.43C285.41,269,285,268.2,284.5,267.45Z"/><path class="cls-5" d="M293.13,270.18a8.37,8.37,0,0,1,0,7.1,8.62,8.62,0,0,1-2.27,2.9h-1.09a8.31,8.31,0,0,0,0-12.9h1.09A8.52,8.52,0,0,1,293.13,270.18Z"/><text class="cls-2" transform="translate(533.98 254.03)">ヘッドレ<tspan class="cls-6" x="56.69" y="0">ス</tspan><tspan x="74.41" y="0">CMS</tspan><tspan x="-11.6" y="24.8">（mic</tspan><tspan class="cls-10" x="25.73" y="24.8">r</tspan><tspan x="31.87" y="24.8">oCM</tspan><tspan class="cls-6" x="61.94" y="24.8">S</tspan><tspan class="cls-7" x="73.61" y="24.8">など</tspan><tspan class="cls-8" x="101.95" y="24.8">）</tspan></text><rect class="cls-9" x="512.77" y="224.99" width="146.95" height="73.19"/><path class="cls-5" d="M534.52,251.22l1.07-1.34,1.17-1.51c.37-.49.6-.78.68-.88a20.55,20.55,0,0,1,1.55-2,1.27,1.27,0,0,1,.91-.38,1.55,1.55,0,0,1,1,.34,22.71,22.71,0,0,1,1.77,1.77c1.57,1.71,3.22,3.43,4.93,5.15l-.8.82q-2.46-2.49-4.94-5.17c-.66-.72-1.12-1.19-1.36-1.41a1,1,0,0,0-.6-.34c-.11,0-.27.12-.46.34s-.49.61-.88,1.14a1.59,1.59,0,0,0-.17.24q-1.78,2.35-3,3.87Z"/><path class="cls-5" d="M550.73,246.51l1-.22c.29,1,.63,2.25,1,3.77l-1,.22C551.41,249,551.08,247.71,550.73,246.51Zm9-.53a12.77,12.77,0,0,1-.82,4.58,5.62,5.62,0,0,1-2.24,2.67,10.84,10.84,0,0,1-4.08,1.28l-.21-.95c2.31-.34,3.93-1.06,4.84-2.15s1.4-2.92,1.48-5.49Zm-5.91.12,1-.22c.38,1.31.72,2.62,1,3.92l-1,.23Q554.37,248,553.83,246.1Z"/><path class="cls-5" d="M566.82,243.3v4.14a67.37,67.37,0,0,1,7.92,2.43l-.36,1a67,67,0,0,0-7.56-2.37v6.29h-1.14V243.3Zm3.16.78.92-.49c.48.8,1,1.65,1.44,2.56l-.92.45Q570.85,245.53,570,244.08Zm2.09-.6L573,243c.52.86,1,1.72,1.48,2.57l-.93.47C573.15,245.3,572.66,244.45,572.07,243.48Z"/><path class="cls-5" d="M580.44,253.39a9.22,9.22,0,0,0,5-1.6,8.4,8.4,0,0,0,2.93-4.13l1,.4q-2.33,6.39-9.83,6.39h-.22V243.5h1.15Z"/><path class="cls-5" d="M593.36,244.88v-1h8.79v1a15.05,15.05,0,0,1-3.06,4.64c1.37,1.27,2.78,2.65,4.22,4.17l-.76.73q-2.07-2.17-4.2-4.16a23.36,23.36,0,0,1-5.73,4l-.48-.9a23.52,23.52,0,0,0,5.45-3.83,15.15,15.15,0,0,0,3.37-4.64Z"/><path class="cls-5" d="M614.19,244.49a3.89,3.89,0,0,0-3,1.18,4.46,4.46,0,0,0-1.11,3.18,4.4,4.4,0,0,0,1.14,3.19,4,4,0,0,0,3,1.18,5,5,0,0,0,2.74-.81l.38.85a5.69,5.69,0,0,1-3.21.91,5,5,0,0,1-3.75-1.45,6.08,6.08,0,0,1,0-7.75,5,5,0,0,1,3.76-1.43,5.69,5.69,0,0,1,3.21.91l-.38.85A5,5,0,0,0,614.19,244.49Z"/><path class="cls-5" d="M619.44,254V243.68h1.15l3.68,6.24h0l3.69-6.24h1.19V254H628v-8.45h0l-3.2,5.37h-1l-3.2-5.37h0V254Z"/><path class="cls-5" d="M634.45,244.46a2.37,2.37,0,0,0-1.52.43,1.46,1.46,0,0,0-.54,1.2c0,.92.67,1.58,2,2a5.74,5.74,0,0,1,2.5,1.28,2.74,2.74,0,0,1,.74,2,2.6,2.6,0,0,1-.86,2.11,3.68,3.68,0,0,1-2.44.73,5.61,5.61,0,0,1-3.12-.89l.34-.94a4.65,4.65,0,0,0,2.78.88,2.4,2.4,0,0,0,1.61-.48,1.77,1.77,0,0,0,.56-1.41A1.89,1.89,0,0,0,636,250a3.73,3.73,0,0,0-1.66-.87c-2.07-.62-3.11-1.62-3.11-3a2.3,2.3,0,0,1,.85-1.86,3.58,3.58,0,0,1,2.33-.69,6.81,6.81,0,0,1,3,.66l-.29.88A5.94,5.94,0,0,0,634.45,244.46Z"/><path class="cls-5" d="M531.55,277.28a8.47,8.47,0,0,1,0-7.1,8.68,8.68,0,0,1,2.28-2.9h1.09a8.29,8.29,0,0,0,0,12.9h-1.09A8.78,8.78,0,0,1,531.55,277.28Z"/><path class="cls-5" d="M537.61,271.46h1l0,1.22h0a2.24,2.24,0,0,1,1.94-1.36,2,2,0,0,1,2,1.41h0a2.33,2.33,0,0,1,2.14-1.41,2,2,0,0,1,1.69.67,3.46,3.46,0,0,1,.54,2.16v4.68h-1v-4.39a3.39,3.39,0,0,0-.33-1.78,1.22,1.22,0,0,0-1.1-.49,1.49,1.49,0,0,0-1.2.68,2.69,2.69,0,0,0-.51,1.66v4.32h-1v-4.39a3.47,3.47,0,0,0-.33-1.78,1.23,1.23,0,0,0-1.11-.49,1.47,1.47,0,0,0-1.17.74,3,3,0,0,0-.53,1.78v4.14h-1Z"/><path class="cls-5" d="M549.59,269.76V268.2h1.09v1.56Zm0,9.07v-7.37h1.09v7.37Z"/><path class="cls-5" d="M556.6,272.18a2.49,2.49,0,0,0-1.94.77,3.2,3.2,0,0,0-.69,2.19,3.1,3.1,0,0,0,.73,2.17,2.43,2.43,0,0,0,1.9.81,4,4,0,0,0,1.9-.48l.29.84a5.21,5.21,0,0,1-2.23.49,3.56,3.56,0,0,1-2.66-1,3.82,3.82,0,0,1-1-2.79,3.89,3.89,0,0,1,1-2.81,3.63,3.63,0,0,1,2.71-1,5.21,5.21,0,0,1,2.23.49l-.29.87A4.06,4.06,0,0,0,556.6,272.18Z"/><path class="cls-5" d="M560.77,271.46h1l0,1.57h0a4.11,4.11,0,0,1,3.52-1.71v.89a3.69,3.69,0,0,0-2.55.87,2.86,2.86,0,0,0-1,2.23v3.52h-1.06Z"/><path class="cls-5" d="M572.41,277.94a3.28,3.28,0,0,1-2.53,1,3.24,3.24,0,0,1-2.52-1,4.59,4.59,0,0,1,0-5.59,3.24,3.24,0,0,1,2.52-1,3.28,3.28,0,0,1,2.53,1,4.59,4.59,0,0,1,0,5.59Zm-.76-5a2.39,2.39,0,0,0-3.53,0,3.38,3.38,0,0,0-.65,2.19,3.35,3.35,0,0,0,.65,2.19,2.37,2.37,0,0,0,3.53,0,3.34,3.34,0,0,0,.64-2.19A3.38,3.38,0,0,0,571.65,273Z"/><path class="cls-5" d="M579.73,269.29a3.93,3.93,0,0,0-3,1.18,4.47,4.47,0,0,0-1.11,3.19,4.39,4.39,0,0,0,1.14,3.18,3.9,3.9,0,0,0,3,1.18,5,5,0,0,0,2.74-.81l.38.85a5.69,5.69,0,0,1-3.21.91,5,5,0,0,1-3.75-1.44,6.09,6.09,0,0,1,0-7.76,5,5,0,0,1,3.76-1.43,5.69,5.69,0,0,1,3.21.91l-.38.85A5,5,0,0,0,579.73,269.29Z"/><path class="cls-5" d="M585,278.83V268.48h1.15l3.68,6.24h0l3.68-6.24h1.2v10.35h-1.14v-8.45h0l-3.2,5.37H589.3l-3.2-5.37h0v8.45Z"/><path class="cls-5" d="M600,269.26a2.43,2.43,0,0,0-1.52.43,1.46,1.46,0,0,0-.54,1.2c0,.92.67,1.58,2,2a5.74,5.74,0,0,1,2.5,1.27,2.75,2.75,0,0,1,.74,2,2.59,2.59,0,0,1-.86,2.1,3.63,3.63,0,0,1-2.44.73,5.61,5.61,0,0,1-3.12-.89l.34-.94a4.65,4.65,0,0,0,2.78.88,2.42,2.42,0,0,0,1.61-.48,1.76,1.76,0,0,0,.56-1.4,1.9,1.9,0,0,0-.48-1.36,4,4,0,0,0-1.66-.87q-3.1-.92-3.11-3a2.26,2.26,0,0,1,.85-1.85,3.52,3.52,0,0,1,2.33-.7,6.6,6.6,0,0,1,3,.67l-.28.88A5.82,5.82,0,0,0,600,269.26Z"/><path class="cls-5" d="M608.62,270.37v-.94h2.62c.26-.84.46-1.56.62-2.15l1,.14c-.16.65-.34,1.32-.55,2H615v.94H612a74.68,74.68,0,0,1-2.74,7.2l-.95-.34a73.24,73.24,0,0,0,2.62-6.86Zm12.16.28a18.45,18.45,0,0,0-2.92-.25v5.21a18.21,18.21,0,0,1,3,2.1l-.65.77a26.43,26.43,0,0,0-2.38-1.75,2.84,2.84,0,0,1-.77,2.09,3.53,3.53,0,0,1-2.31.62,3.43,3.43,0,0,1-2.22-.65,2.13,2.13,0,0,1-.79-1.76,2,2,0,0,1,.78-1.7,3.56,3.56,0,0,1,2.23-.61,5.81,5.81,0,0,1,2.05.42v-5.71a25.87,25.87,0,0,1,4.08.29Zm-3.95,5.5a4.8,4.8,0,0,0-2.05-.51c-1.32,0-2,.46-2,1.39a1.32,1.32,0,0,0,.52,1.11,3,3,0,0,0,3.07,0,2.28,2.28,0,0,0,.44-1.62Z"/><path class="cls-5" d="M633.28,272a28.07,28.07,0,0,0-6.54,2.12q-2,1.08-2,2.37c0,1.39,1.41,2.09,4.21,2.09a32.06,32.06,0,0,0,4.34-.33l.11,1a32.78,32.78,0,0,1-4.45.33q-5.34,0-5.34-3.08c0-1.23.88-2.31,2.62-3.23q-.6-2.33-1.1-5.2l1.1-.17c.27,1.58.61,3.2,1,4.87a36.61,36.61,0,0,1,5.81-1.74Zm-3-4,.84-.46q.65,1.05,1.32,2.34l-.85.41C631.22,269.52,630.78,268.75,630.31,268Zm2-.54.86-.45c.6,1,1.05,1.77,1.36,2.36l-.87.43Q633,268.58,632.29,267.45Z"/><path class="cls-5" d="M640.93,270.18a8.47,8.47,0,0,1,0,7.1,8.78,8.78,0,0,1-2.28,2.9h-1.09a8.29,8.29,0,0,0,0-12.9h1.09A8.68,8.68,0,0,1,640.93,270.18Z"/><text class="cls-2" transform="translate(292.44 399.45)">静的ウェブサイトのホスティングサービス<tspan x="0" y="24.8">と、サーバーレスのバックエンドサービス</tspan><tspan x="81.35" y="49.61">（n</tspan><tspan class="cls-11" x="103.58" y="49.61">e</tspan><tspan x="111.26" y="49.61">t</tspan><tspan class="cls-10" x="118.52" y="49.61">l</tspan><tspan x="122.58" y="49.61">i</tspan><tspan class="cls-12" x="126.93" y="49.61">f</tspan><tspan class="cls-6" x="133.98" y="49.61">y</tspan><tspan class="cls-7" x="145.42" y="49.61">など</tspan><tspan class="cls-8" x="173.76" y="49.61">）</tspan></text><rect class="cls-9" x="275.03" y="369.4" width="303.16" height="100.77"/><path class="cls-5" d="M296.72,392.36h2.59v.85H293v-.85h2.6v-.92h-2.17v-.82h2.17v-.93h-2.46v-.87h2.46v-.95h1.09v.95h2.49v.87h-2.49v.93h2.19v.55a10.8,10.8,0,0,0,2.54-3.47l1,.15a7.53,7.53,0,0,1-.41.87h2.88v.9a13.5,13.5,0,0,1-1.23,1.39h2v2.58h.64v.92h-.64v3.06h-1v-.46h-1.5v1.58a3,3,0,0,1-.23,1.49c-.15.2-.53.3-1.12.3-.34,0-.9,0-1.69-.07l0-1c.64,0,1.1.07,1.38.07s.45,0,.51-.12a1.52,1.52,0,0,0,.09-.71v-1.58h-2.5v-.88h2.5v-1.72h-2.86v-.92h2.86v-1.7h-1.94v-.58a9.25,9.25,0,0,1-.79.75l-.65-.62h-2Zm.86,8.08c-.31,0-.77,0-1.39-.07v-.95l1.17.07a1.24,1.24,0,0,0,.48-.05s.06-.16.06-.38v-.82h-3.33v2.24h-1v-6.56h5.38v5.14c0,.64-.07,1-.22,1.17A1.8,1.8,0,0,1,297.58,400.44Zm-3-4.74h3.33v-.9h-3.33Zm0,.81v.92h3.33v-.92Zm7.74-5.5c.49-.46.94-.92,1.35-1.39h-2.17a12.55,12.55,0,0,1-1.06,1.39Zm2.37.88h-1.5v1.7h1.5Zm-1.5,4.34h1.5v-1.72h-1.5Z"/><path class="cls-5" d="M318.4,400.4c-.77,0-1.75,0-2.92-.13l0-1c1.13.08,2,.12,2.5.12.19,0,.34-.18.44-.55a16,16,0,0,0,.31-2.53q.14-2,.24-5.85h-4.18a13.78,13.78,0,0,1-2,3.36l-.38-.37v5.82h-3.73v1.09h-1.06V389.78h1.56a14.1,14.1,0,0,0,.74-2L311,388a15.45,15.45,0,0,1-.67,1.83h2.11v2.89a13.54,13.54,0,0,0,2.14-4.92l1.05.15a15.66,15.66,0,0,1-.47,1.6H320c0,1.73-.07,3.19-.11,4.35s-.09,2.17-.16,3-.13,1.48-.2,1.93a4,4,0,0,1-.29,1.06,1,1,0,0,1-.37.46A1.17,1.17,0,0,1,318.4,400.4ZM308.69,394h2.7v-3.29h-2.7Zm0,.92v3.41h2.7v-3.41Zm5.64-2.13.91-.49a23.43,23.43,0,0,1,2,3.79l-.93.43A24.87,24.87,0,0,0,314.33,392.81Z"/><path class="cls-5" d="M322.58,390.33h4.62v-2.27h1.09v2.27h4.87v2.31a6.71,6.71,0,0,1-2.07,5.21,9.35,9.35,0,0,1-6,2.12l-.12-1a8.47,8.47,0,0,0,5.28-1.84,5.74,5.74,0,0,0,1.79-4.5V391.3h-8.43v3.47h-1.07Z"/><path class="cls-5" d="M338,391.61h8.14v.93h-3.53v5.87h3.87v.94h-8.82v-.94h3.87v-5.87H338Z"/><path class="cls-5" d="M360,390.66h-9.38v-1h9.48c-.49-.86-.79-1.38-.91-1.57l.78-.41c.39.63.79,1.34,1.19,2.11v.1c0,3.13-.73,5.51-2.21,7.13s-3.76,2.6-6.86,2.93l-.18-1a9.69,9.69,0,0,0,6-2.42A8.53,8.53,0,0,0,360,390.66Zm1.11-2.85.79-.41c.43.7.83,1.42,1.22,2.15l-.79.4C361.88,389.17,361.47,388.45,361.08,387.81Z"/><path class="cls-5" d="M364.25,391h2.5v-2.55h1.06V391h5.1v-2.55H374V391h2.49v1H374v.9q0,3.56-1.49,5.11t-5.17,1.92l-.18-1c2.21-.23,3.71-.76,4.52-1.61s1.2-2.33,1.2-4.43V392h-5.1v3.21h-1.06V392h-2.5Z"/><path class="cls-5" d="M378.85,394.13a19.15,19.15,0,0,0,5.94-1.86,15.39,15.39,0,0,0,4.7-3.4l.7.77a15.86,15.86,0,0,1-4.24,3.19v7.25H384.8v-6.67a20.34,20.34,0,0,1-5.78,1.74Z"/><path class="cls-5" d="M396.37,388.57v4.14a68.8,68.8,0,0,1,7.92,2.44l-.34,1a66.09,66.09,0,0,0-7.58-2.37v6.29h-1.14V388.57Z"/><path class="cls-5" d="M414.27,398.78a3.79,3.79,0,0,0,2.65-1.35,4.73,4.73,0,0,0,.95-3.09,4,4,0,0,0-1.19-3,4.36,4.36,0,0,0-3.05-1.24,40.76,40.76,0,0,1-.74,4.65,11.53,11.53,0,0,1-1,2.87,4.12,4.12,0,0,1-1.08,1.36,2,2,0,0,1-1.17.39,2.37,2.37,0,0,1-1.88-1.23,5.17,5.17,0,0,1-.86-3,5.65,5.65,0,0,1,1.82-4.34,6.77,6.77,0,0,1,4.74-1.67,5.39,5.39,0,0,1,3.89,1.47,4.92,4.92,0,0,1,1.54,3.73,5.85,5.85,0,0,1-1.19,3.81,4.44,4.44,0,0,1-3.23,1.62Zm-1.72-8.59a5.32,5.32,0,0,0-3.35,1.6,4.73,4.73,0,0,0-1.25,3.36,4.27,4.27,0,0,0,.56,2.27q.57.93,1.14.93a.93.93,0,0,0,.53-.19,2.35,2.35,0,0,0,.61-.74,7.08,7.08,0,0,0,.64-1.42,18.37,18.37,0,0,0,.6-2.36C412.24,392.63,412.41,391.48,412.55,390.19Z"/><path class="cls-5" d="M423.34,393.12l1,.37q-1.11,2.52-2.43,4.89l-1-.45C421.84,396.32,422.64,394.72,423.34,393.12Zm-2-2.93h5.34v-2h1.14v2h5.06v1h-5.06v7a2.24,2.24,0,0,1-.29,1.4,1.91,1.91,0,0,1-1.31.3,15.19,15.19,0,0,1-2.24-.18l.11-1a10.94,10.94,0,0,0,1.91.16c.32,0,.52,0,.59-.12a1.56,1.56,0,0,0,.09-.7v-6.91h-5.34Zm8.5,3.3,1-.42c.87,1.64,1.68,3.31,2.43,5l-1,.41C431.38,396.64,430.59,395,429.81,393.49Z"/><path class="cls-5" d="M436.86,390.3v-1h8.79v1a15.27,15.27,0,0,1-3.07,4.64q2.06,1.89,4.23,4.17l-.77.73c-1.38-1.45-2.77-2.84-4.19-4.16a23.36,23.36,0,0,1-5.73,4l-.48-.9a23.24,23.24,0,0,0,5.44-3.83,15.19,15.19,0,0,0,3.38-4.64Z"/><path class="cls-5" d="M449.47,393h11.91v1h-4.86a5.54,5.54,0,0,1-4.71,6.1l-.31-1a4.56,4.56,0,0,0,3.88-5.12h-5.91Zm1.6-2.84v-1h8.71v1Z"/><path class="cls-5" d="M465,395.24a15.61,15.61,0,0,0,4.74-1.48,12.76,12.76,0,0,0,3.76-2.69l.64.72a13,13,0,0,1-3.36,2.52v5.77H469.7v-5.23a16.33,16.33,0,0,1-4.54,1.35Z"/><path class="cls-5" d="M478.77,390.08l.51-1q2.27,1.14,4.33,2.41l-.55,1Q481.11,391.26,478.77,390.08Zm11,.55q-1.43,8.16-10.47,9l-.17-1.07a11.55,11.55,0,0,0,6.53-2.38,9.55,9.55,0,0,0,3.08-5.74Z"/><path class="cls-5" d="M501,388.33l.78-.41c.39.64.79,1.34,1.19,2.11l-.49.25q0,4.67-2.26,7c-1.49,1.53-3.86,2.44-7.1,2.71l-.15-1q4.29-.41,6.23-2.22c1.3-1.21,2-3.11,2.11-5.68h-5.52a10.28,10.28,0,0,1-2.78,4.16l-.75-.68a9.56,9.56,0,0,0,3-6.08l1.06.07a8.81,8.81,0,0,1-.27,1.54H502C501.63,389.46,501.29,388.87,501,388.33Zm1.92-.24.79-.41c.43.7.83,1.42,1.22,2.16l-.79.39C503.68,389.45,503.27,388.74,502.88,388.09Z"/><path class="cls-5" d="M506,391h2.49v-2.55h1.07V391h5.1v-2.55h1.12V391h2.49v1h-2.49v.9q0,3.56-1.49,5.11c-1,1.05-2.72,1.69-5.17,1.92l-.19-1c2.21-.23,3.72-.76,4.52-1.61s1.21-2.33,1.21-4.43V392h-5.1v3.21h-1.07V392H506Z"/><path class="cls-5" d="M520.52,394.88v-1.07h11.54v1.07Z"/><path class="cls-5" d="M536.59,389v4.31a49.3,49.3,0,0,0,8.45-2.17l.31,1a49.41,49.41,0,0,1-8.76,2.24v2.08a1.85,1.85,0,0,0,2.33,2.33c2.2,0,4.31-.08,6.32-.22l0,1q-3.36.21-6.43.21a3.83,3.83,0,0,1-2.66-.69,3.76,3.76,0,0,1-.7-2.65V389Zm6-.48.85-.46q.64,1.05,1.32,2.34l-.85.41C543.54,390.05,543.1,389.28,542.63,388.52Zm2-.54.87-.45c.59,1,1,1.77,1.36,2.36l-.88.43Q545.31,389.12,544.61,388Z"/><path class="cls-5" d="M550.24,390.3v-1H559v1a15.05,15.05,0,0,1-3.06,4.64q2.06,1.89,4.22,4.17l-.76.73q-2.07-2.18-4.2-4.16a23.36,23.36,0,0,1-5.73,4l-.48-.9a23.52,23.52,0,0,0,5.45-3.83,15.15,15.15,0,0,0,3.37-4.64Z"/><path class="cls-5" d="M296.08,413.31l1.11-.17c.26,1.57.58,3.09,1,4.57a30.79,30.79,0,0,1,5.88-1.87l.21,1a24.91,24.91,0,0,0-6.42,2.18c-1.41.81-2.12,1.66-2.12,2.56q0,2.26,4.21,2.26a33.48,33.48,0,0,0,4.33-.32l.12,1a33,33,0,0,1-4.45.33,7.81,7.81,0,0,1-4-.83,2.63,2.63,0,0,1-1.36-2.39q0-1.89,2.55-3.36C296.68,416.51,296.33,414.87,296.08,413.31Z"/><path class="cls-5" d="M311.13,424.36l-.92.72a38.44,38.44,0,0,0-2.78-3l.87-.78C309.26,422.23,310.2,423.26,311.13,424.36Z"/><path class="cls-5" d="M321.73,415.79h2.5v-2.55h1.06v2.55h5.1v-2.55h1.12v2.55H334v1h-2.5v.91c0,2.36-.49,4.06-1.49,5.11s-2.71,1.68-5.17,1.92l-.18-1c2.21-.22,3.71-.76,4.52-1.61s1.2-2.33,1.2-4.42v-.91h-5.1V420h-1.06v-3.22h-2.5Z"/><path class="cls-5" d="M336.27,419.69v-1.08h11.54v1.08Z"/><path class="cls-5" d="M354.19,414.38a26.25,26.25,0,0,1-3.25,10.15l-1.05-.49a25.85,25.85,0,0,0,3.16-9.73Zm3.2-.58.85-.45c.46.76.9,1.54,1.32,2.32l-.85.41C358.34,415.39,357.9,414.62,357.39,413.8Zm1.25,3.47,1.06-.33a62.93,62.93,0,0,1,2.33,7.42l-1.15.24A64.88,64.88,0,0,0,358.64,417.27Zm.74-4,.86-.46c.56.91,1,1.71,1.36,2.38l-.88.42C360.29,414.8,359.84,414,359.38,413.26Z"/><path class="cls-5" d="M364.62,419.69v-1.08h11.54v1.08Z"/><path class="cls-5" d="M381.41,423.61a9.23,9.23,0,0,0,5-1.59,8.43,8.43,0,0,0,2.93-4.14l1,.4q-2.31,6.39-9.82,6.39h-.22V413.72h1.14Z"/><path class="cls-5" d="M394.34,415.11v-1h8.79v1a15,15,0,0,1-3.06,4.63c1.37,1.27,2.77,2.66,4.22,4.17l-.77.74c-1.38-1.46-2.77-2.85-4.19-4.17a23.66,23.66,0,0,1-5.73,4l-.48-.91a23,23,0,0,0,5.44-3.83,15.16,15.16,0,0,0,3.38-4.63Z"/><path class="cls-5" d="M414.27,423.58a3.81,3.81,0,0,0,2.65-1.34,4.77,4.77,0,0,0,.95-3.09,4,4,0,0,0-1.19-3,4.35,4.35,0,0,0-3.05-1.23,41.5,41.5,0,0,1-.74,4.65,11.84,11.84,0,0,1-1,2.87,4.23,4.23,0,0,1-1.08,1.36,2,2,0,0,1-1.17.39,2.36,2.36,0,0,1-1.88-1.24,5.15,5.15,0,0,1-.86-3,5.62,5.62,0,0,1,1.82-4.33,6.73,6.73,0,0,1,4.74-1.68,5.39,5.39,0,0,1,3.89,1.47,4.92,4.92,0,0,1,1.54,3.74,5.84,5.84,0,0,1-1.19,3.8,4.44,4.44,0,0,1-3.23,1.62ZM412.55,415a5.28,5.28,0,0,0-3.35,1.61A4.69,4.69,0,0,0,408,420a4.27,4.27,0,0,0,.56,2.27c.38.63.76.94,1.14.94a1,1,0,0,0,.53-.19,2.54,2.54,0,0,0,.61-.75,7.08,7.08,0,0,0,.64-1.42,18.37,18.37,0,0,0,.6-2.36C412.24,417.44,412.41,416.29,412.55,415Z"/><path class="cls-5" d="M425.05,414.38a26.24,26.24,0,0,1-3.24,10.15l-1.05-.49a26,26,0,0,0,3.16-9.73Zm3.21-.58.85-.45c.46.76.9,1.54,1.31,2.32l-.85.41C429.21,415.39,428.77,414.62,428.26,413.8Zm1.24,3.47,1.07-.33a63,63,0,0,1,2.32,7.42l-1.15.24A62.89,62.89,0,0,0,429.5,417.27Zm.74-4,.86-.46c.56.91,1,1.71,1.37,2.38l-.88.42Q430.93,414.4,430.24,413.26Z"/><path class="cls-5" d="M436.74,416.74l1-.23c.29,1,.63,2.25,1,3.77l-1,.23C437.43,419.19,437.09,417.94,436.74,416.74Zm9-.54a13,13,0,0,1-.82,4.58,5.59,5.59,0,0,1-2.25,2.67,10.61,10.61,0,0,1-4.07,1.28l-.22-1c2.32-.34,3.93-1,4.84-2.15s1.41-2.92,1.48-5.49Zm-5.91.13,1-.23c.38,1.31.72,2.62,1,3.92l-1,.23C440.55,418.89,440.21,417.58,439.85,416.33Z"/><path class="cls-5" d="M459.1,415.6h-5.59a10.4,10.4,0,0,1-2.82,4.3l-.76-.68a9.62,9.62,0,0,0,3-6.08l1.07.07a14.2,14.2,0,0,1-.24,1.4h6.44v.24q0,4.72-2.23,7t-7.11,2.73l-.17-1q4.33-.42,6.28-2.26T459.1,415.6Z"/><path class="cls-5" d="M464.54,414.37h10.12v1h-4.5v7.57h4.92v1h-11v-1H469v-7.57h-4.49Z"/><path class="cls-5" d="M478.77,414.88l.51-1c1.51.75,3,1.56,4.33,2.41l-.55,1C481.76,416.48,480.33,415.67,478.77,414.88Zm11,.55q-1.43,8.18-10.47,9l-.17-1.06a11.55,11.55,0,0,0,6.53-2.39,9.55,9.55,0,0,0,3.08-5.73Z"/><path class="cls-5" d="M495.35,413.52v4.14a64.53,64.53,0,0,1,7.92,2.44l-.35,1a67.07,67.07,0,0,0-7.57-2.37v6.3h-1.13V413.52Zm3.16.78.92-.48c.48.79,1,1.64,1.45,2.55l-.92.45C499.58,416.11,499.1,415.27,498.51,414.3Zm2.1-.6.92-.49c.53.86,1,1.72,1.49,2.58l-.94.46C501.69,415.52,501.19,414.67,500.61,413.7Z"/><path class="cls-5" d="M506,415.79h2.49v-2.55h1.07v2.55h5.1v-2.55h1.12v2.55h2.49v1h-2.49v.91q0,3.54-1.49,5.11c-1,1-2.72,1.68-5.17,1.92l-.19-1q3.31-.33,4.52-1.61c.81-.85,1.21-2.33,1.21-4.42v-.91h-5.1V420h-1.07v-3.22H506Z"/><path class="cls-5" d="M520.52,419.69v-1.08h11.54v1.08Z"/><path class="cls-5" d="M536.59,413.8v4.31a48.39,48.39,0,0,0,8.45-2.17l.31,1a49.41,49.41,0,0,1-8.76,2.24v2.08a2.74,2.74,0,0,0,.45,1.87,2.69,2.69,0,0,0,1.88.46q3.3,0,6.32-.21l0,1q-3.36.21-6.43.21a3.83,3.83,0,0,1-2.66-.69,3.74,3.74,0,0,1-.7-2.65V413.8Zm6-.48.85-.45q.64,1,1.32,2.34l-.85.41C543.54,414.85,543.1,414.09,542.63,413.32Zm2-.54.87-.45c.59,1,1,1.77,1.36,2.37l-.88.42Q545.31,413.92,544.61,412.78Z"/><path class="cls-5" d="M550.24,415.11v-1H559v1a15,15,0,0,1-3.06,4.63q2.06,1.9,4.22,4.17l-.76.74q-2.07-2.19-4.2-4.17a23.66,23.66,0,0,1-5.73,4l-.48-.91a23.22,23.22,0,0,0,5.45-3.83,15.12,15.12,0,0,0,3.37-4.63Z"/><path class="cls-5" d="M383,447.5a8.37,8.37,0,0,1,0-7.1,8.52,8.52,0,0,1,2.27-2.9h1.09a8.31,8.31,0,0,0,0,12.9h-1.09A8.52,8.52,0,0,1,383,447.5Z"/><path class="cls-5" d="M389,441.68h1V443h0a3.28,3.28,0,0,1,1.09-1.07,2.74,2.74,0,0,1,1.42-.39,2.21,2.21,0,0,1,1.85.77,4,4,0,0,1,.6,2.45v4.29h-1v-4.21a3.27,3.27,0,0,0-.4-1.9,1.56,1.56,0,0,0-1.36-.54,2,2,0,0,0-1.5.82,2.87,2.87,0,0,0-.68,1.89v3.94h-1Z"/><path class="cls-5" d="M397.64,445.76a2.63,2.63,0,0,0,.74,1.9,2.5,2.5,0,0,0,1.84.7,4.6,4.6,0,0,0,2.17-.57l.29.81a5.63,5.63,0,0,1-2.56.59,3.36,3.36,0,0,1-2.56-1,3.91,3.91,0,0,1-1-2.79,4.06,4.06,0,0,1,.92-2.81,3.14,3.14,0,0,1,2.48-1,3,3,0,0,1,2.38,1,4.15,4.15,0,0,1,.84,2.79,4.54,4.54,0,0,1,0,.46Zm0-.82h4.54a2.86,2.86,0,0,0-.6-1.9,2,2,0,0,0-1.6-.66,2.16,2.16,0,0,0-1.68.67A2.87,2.87,0,0,0,397.64,444.94Z"/><path class="cls-5" d="M407.1,439.27V442h2.79v.85H407.1v3.87a2.23,2.23,0,0,0,.27,1.32,1.24,1.24,0,0,0,1,.33,3.31,3.31,0,0,0,1.25-.24l.17.84a4.64,4.64,0,0,1-1.56.25,2.32,2.32,0,0,1-1.7-.51,2.6,2.6,0,0,1-.5-1.8v-4.06H404.4V442H406v-2.7Z"/><path class="cls-5" d="M412.58,449.05V438.42h1.09v10.63Z"/><path class="cls-5" d="M416.65,440v-1.56h1.09V440Zm0,9.07v-7.37h1.09v7.37Z"/><path class="cls-5" d="M420.15,442h1.94v-1c0-1.64.79-2.46,2.35-2.46a4.58,4.58,0,0,1,1.34.22l-.23.85a2.56,2.56,0,0,0-1-.22,1.34,1.34,0,0,0-1.08.37,1.88,1.88,0,0,0-.32,1.24v1h2.54v.85h-2.54v6.23h-1.05v-6.23h-1.94Z"/><path class="cls-5" d="M428.06,441.68l2.2,6.07h0l2.43-6.07h1.1l-4.39,10.49h-1.11L429.7,449l-2.79-7.33Z"/><path class="cls-5" d="M438.89,440.59v-.93h2.62c.25-.85.46-1.56.62-2.16l1,.14c-.16.65-.34,1.33-.55,2h2.66v.93h-3a74.44,74.44,0,0,1-2.73,7.2l-1-.34q1.55-3.54,2.62-6.86Zm12.16.28a18.45,18.45,0,0,0-2.92-.25v5.21a20,20,0,0,1,3,2.1l-.65.77a27.94,27.94,0,0,0-2.38-1.75,2.8,2.8,0,0,1-.78,2.09,3.48,3.48,0,0,1-2.3.62,3.43,3.43,0,0,1-2.22-.64,2.16,2.16,0,0,1-.8-1.77,2,2,0,0,1,.79-1.7,3.61,3.61,0,0,1,2.23-.61,5.54,5.54,0,0,1,2,.43v-5.71a26.19,26.19,0,0,1,4.09.28Zm-4,5.5a4.79,4.79,0,0,0-2-.51c-1.32,0-2,.47-2,1.39a1.3,1.3,0,0,0,.52,1.11,3,3,0,0,0,3.06,0,2.26,2.26,0,0,0,.44-1.63Z"/><path class="cls-5" d="M463.55,442.19a27.74,27.74,0,0,0-6.54,2.12c-1.34.72-2,1.52-2,2.38,0,1.38,1.41,2.08,4.21,2.08a32.06,32.06,0,0,0,4.34-.33l.11,1a34.49,34.49,0,0,1-4.45.32q-5.34,0-5.34-3.07c0-1.24.87-2.32,2.62-3.24-.41-1.55-.77-3.28-1.1-5.2l1.1-.17c.26,1.58.61,3.21,1,4.88a35.64,35.64,0,0,1,5.82-1.75Zm-3-4,.85-.45c.43.7.87,1.47,1.32,2.34l-.85.41C461.48,439.74,461,439,460.57,438.21Zm2-.54.86-.45c.6,1,1.05,1.77,1.36,2.36l-.88.43C463.47,439.21,463,438.43,462.56,437.67Z"/><path class="cls-5" d="M471.19,440.4a8.37,8.37,0,0,1,0,7.1,8.52,8.52,0,0,1-2.27,2.9h-1.09a8.31,8.31,0,0,0,0-12.9h1.09A8.52,8.52,0,0,1,471.19,440.4Z"/><line class="cls-13" x1="263.66" y1="126.6" x2="263.66" y2="197.26"/><polygon class="cls-5" points="258.86 191.61 263.66 196.42 268.47 191.61 268.47 195.69 263.66 200.5 258.86 195.69 258.86 191.61"/><line class="cls-13" x1="578.77" y1="126.25" x2="578.77" y2="196.9"/><polygon class="cls-5" points="573.96 191.26 578.77 196.07 583.57 191.26 583.57 195.34 578.77 200.14 573.96 195.34 573.96 191.26"/><line class="cls-13" x1="537.04" y1="308.98" x2="483.11" y2="354.61"/><polygon class="cls-5" points="484.31 347.3 483.75 354.07 490.52 354.64 487.4 357.27 480.63 356.71 481.2 349.93 484.31 347.3"/><line class="cls-13" x1="360.14" y1="308.42" x2="413.16" y2="355.12"/><polygon class="cls-5" points="405.74 355 412.53 354.57 412.1 347.79 415.16 350.48 415.59 357.26 408.8 357.69 405.74 355"/><text class="cls-2" transform="translate(663.58 383.41)">①UR<tspan class="cls-6" x="32.64" y="0">L</tspan><tspan x="44.47" y="0">アクセス</tspan><tspan x="8.06" y="24.8">（ユーザー</tspan><tspan class="cls-3" x="78.93" y="24.8">）</tspan></text><rect class="cls-14" x="646.24" y="353.89" width="134.97" height="73.67"/><path class="cls-5" d="M673.16,384.22a6.32,6.32,0,0,1-2.5.51,6.23,6.23,0,0,1-2.49-.51,6.36,6.36,0,0,1-2-1.37,6.48,6.48,0,0,1-1.37-2,6.32,6.32,0,0,1-.51-2.5,6.23,6.23,0,0,1,.51-2.49,6.41,6.41,0,0,1,1.37-2.05,6.52,6.52,0,0,1,2-1.37,6.23,6.23,0,0,1,2.49-.51,6.32,6.32,0,0,1,2.5.51,6.52,6.52,0,0,1,2.05,1.37,6.39,6.39,0,0,1,1.36,2.05,6.23,6.23,0,0,1,.51,2.49,6.32,6.32,0,0,1-.51,2.5,6.45,6.45,0,0,1-1.36,2A6.36,6.36,0,0,1,673.16,384.22Zm-6.47-1.93a5.61,5.61,0,1,0-1.65-4A5.41,5.41,0,0,0,666.69,382.29Zm3.62-7.9h1.13v7.85h-1.13v-6.65h0l-2.24,1.7v-1.22Z"/><path class="cls-5" d="M682.61,382.59c1.77,0,2.65-1.06,2.65-3.19v-6.33h1.11v6.28a4.53,4.53,0,0,1-1,3.13,4.18,4.18,0,0,1-5.61,0,4.48,4.48,0,0,1-1-3.13v-6.28H680v6.33C680,381.53,680.85,382.59,682.61,382.59Z"/><path class="cls-5" d="M688.64,383.41V373.14a15.73,15.73,0,0,1,2.65-.21,5.05,5.05,0,0,1,3,.73,2.38,2.38,0,0,1,1,2.07,2.82,2.82,0,0,1-.58,1.8,3,3,0,0,1-1.65,1v0a3.59,3.59,0,0,1,1.26,1.85l1.25,3H694.4l-1.21-3a2.94,2.94,0,0,0-.81-1.27,3.05,3.05,0,0,0-1.48-.24h-1.13v4.5Zm1.13-5.41h1.13a4.38,4.38,0,0,0,2.48-.55,1.83,1.83,0,0,0,.8-1.62c0-1.32-1-2-3-2a8,8,0,0,0-1.42.12Z"/><path class="cls-5" d="M698.6,373.07v9.38h5.06v1h-6.24V373.07Z"/><path class="cls-5" d="M709.78,374.27v-1H721v1a7.47,7.47,0,0,1-1.45,2.74,7.73,7.73,0,0,1-2.49,1.93l-.57-.88a6.15,6.15,0,0,0,3.35-3.79Zm4.18,1.35H715a13.16,13.16,0,0,1-.89,5.48,5.69,5.69,0,0,1-3,2.78l-.51-.91a4.72,4.72,0,0,0,2.61-2.42A12.23,12.23,0,0,0,714,375.62Z"/><path class="cls-5" d="M733,374.77H727.4a10.44,10.44,0,0,1-2.82,4.29l-.77-.68a9.56,9.56,0,0,0,3.05-6.08l1.06.07a10.15,10.15,0,0,1-.24,1.41h6.45V374q0,4.71-2.23,7t-7.11,2.74l-.17-1q4.32-.41,6.27-2.26T733,374.77Z"/><path class="cls-5" d="M749.11,383.24a38.67,38.67,0,0,1-5.3.36,2.61,2.61,0,0,1-3.3-3.3v-3.69l-3.19.54-.16-1,3.35-.56V372.4h1.09v3l7.68-1.29.16,1a8.57,8.57,0,0,1-1.4,2.67,9.3,9.3,0,0,1-2.25,2.14l-.66-.81a8.46,8.46,0,0,0,1.85-1.69,8.71,8.71,0,0,0,1.27-2.11l-6.65,1.12v3.67a10.9,10.9,0,0,0,.06,1.35,1.26,1.26,0,0,0,.35.73,1.23,1.23,0,0,0,.72.35,10,10,0,0,0,1.32.07,34.11,34.11,0,0,0,5-.36Z"/><path class="cls-5" d="M753.26,374.27v-1h8.79v1a15.05,15.05,0,0,1-3.06,4.64q2.06,1.89,4.22,4.16l-.76.74q-2.07-2.18-4.2-4.17a23.14,23.14,0,0,1-5.72,4l-.49-.91a23,23,0,0,0,5.45-3.82,15.15,15.15,0,0,0,3.37-4.64Z"/><path class="cls-5" d="M680.82,406.66a8.37,8.37,0,0,1,0-7.1,8.49,8.49,0,0,1,2.27-2.89h1.1a8.28,8.28,0,0,0,0,12.89h-1.1A8.43,8.43,0,0,1,680.82,406.66Z"/><path class="cls-5" d="M688.51,398.34h8.09l-.69,8.56h2.9v1H687v-1h7.71l.64-7.57h-6.83Z"/><path class="cls-5" d="M701.31,403.65v-1.07h11.53v1.07Z"/><path class="cls-5" d="M714.83,399.9h2.41v-2.55h1.06v2.55h5v-2.55h1.11v2.55h2.73v1h-2.73v.91q0,3.54-1.49,5.11c-1,1-2.71,1.68-5.16,1.92l-.2-1a12.73,12.73,0,0,0,2.77-.53,4.32,4.32,0,0,0,1.75-1.09,4,4,0,0,0,1-1.76,10.91,10.91,0,0,0,.27-2.65v-.91h-5v3.22h-1.06v-3.22h-2.41Zm9.76-3.19.82-.29c.38.84.7,1.58,1,2.23l-.83.27C725.32,398.36,725,397.62,724.59,396.71Zm1.75-.24.83-.29c.42.93.74,1.69,1,2.29l-.86.25C727,397.86,726.64,397.11,726.34,396.47Z"/><path class="cls-5" d="M729.65,403.65v-1.07h11.54v1.07Z"/><path class="cls-5" d="M747.5,399.56a8.37,8.37,0,0,1,0,7.1,8.43,8.43,0,0,1-2.27,2.9h-1.09a8.3,8.3,0,0,0,0-12.89h1.09A8.49,8.49,0,0,1,747.5,399.56Z"/><text class="cls-2" transform="translate(660.77 502.78)">➁UR<tspan class="cls-6" x="32.64" y="0">L</tspan><tspan x="44.47" y="0">をリスポーン</tspan><tspan x="15.15" y="24.8">（ユーザー</tspan><tspan class="cls-3" x="86.02" y="24.8">）</tspan><tspan x="93.1" y="24.8">　</tspan></text><rect class="cls-14" x="643.44" y="472.66" width="163.71" height="74.27"/><path class="cls-5" d="M670.35,503.59a6.23,6.23,0,0,1-2.49.51,6.32,6.32,0,0,1-2.5-.51,6.48,6.48,0,0,1-2-1.37,6.41,6.41,0,0,1,2-10.45,6.32,6.32,0,0,1,2.5-.51,6.51,6.51,0,0,1,4.54,1.88,6.41,6.41,0,0,1,1.37,2.05,6.33,6.33,0,0,1,0,5,6.32,6.32,0,0,1-3.42,3.42Zm-6.47-1.94a5.61,5.61,0,1,0-1.65-4A5.4,5.4,0,0,0,663.88,501.65Zm3-1v0h3.54v.91h-5v-.91a20.78,20.78,0,0,0,3.08-2.82,3.15,3.15,0,0,0,.77-1.89,1.39,1.39,0,0,0-.38-1.06,1.59,1.59,0,0,0-1.15-.37,4.61,4.61,0,0,0-2.16.63v-1a5.22,5.22,0,0,1,2.31-.51,2.76,2.76,0,0,1,1.87.59,2.17,2.17,0,0,1,.65,1.66,3.59,3.59,0,0,1-.75,2.09A17.06,17.06,0,0,1,666.84,500.68Z"/><path class="cls-5" d="M679.81,502c1.76,0,2.65-1.06,2.65-3.19v-6.33h1.1v6.27a4.51,4.51,0,0,1-1,3.14,4.2,4.2,0,0,1-5.6,0,4.46,4.46,0,0,1-1-3.14v-6.27h1.15v6.33C677.16,500.9,678,502,679.81,502Z"/><path class="cls-5" d="M685.83,502.78V492.51a14.8,14.8,0,0,1,2.65-.22,5.19,5.19,0,0,1,3,.73,2.42,2.42,0,0,1,1,2.08,2.76,2.76,0,0,1-.58,1.8,3,3,0,0,1-1.64,1v0a3.73,3.73,0,0,1,1.26,1.84l1.24,3H691.6l-1.22-3a3,3,0,0,0-.8-1.27,3.05,3.05,0,0,0-1.48-.25H687v4.51Zm1.13-5.41h1.14a4.4,4.4,0,0,0,2.48-.55,1.82,1.82,0,0,0,.79-1.62c0-1.32-1-2-3-2a8.06,8.06,0,0,0-1.42.13Z"/><path class="cls-5" d="M695.79,492.44v9.38h5.06v1h-6.23V492.44Z"/><path class="cls-5" d="M717.07,503.06a21.38,21.38,0,0,1-3.56.29,8.63,8.63,0,0,1-3.75-.6,2,2,0,0,1-1.15-1.91q0-2.25,4.26-3.46a1.75,1.75,0,0,0-.53-.9,1.32,1.32,0,0,0-.86-.26,3.31,3.31,0,0,0-1.92.82,11.08,11.08,0,0,0-2.16,2.37l-.86-.55a28.08,28.08,0,0,0,2.85-4.91h-2.77V493h3.15c.21-.52.43-1.1.64-1.72l1,.24-.57,1.48H717V494h-6.53c-.32.71-.66,1.44-1,2.2h0a4.08,4.08,0,0,1,2.21-.85,2.21,2.21,0,0,1,2.22,1.82c1-.22,2-.4,3.25-.56l.1.93c-1.29.17-2.34.35-3.15.53a17.2,17.2,0,0,1,.18,2.77h-1.09a21.15,21.15,0,0,0-.12-2.5c-2.25.65-3.38,1.47-3.38,2.46a1.2,1.2,0,0,0,.67,1.16,3.13,3.13,0,0,0,1.17.38,12.33,12.33,0,0,0,2,.13,22.27,22.27,0,0,0,3.46-.31Z"/><path class="cls-5" d="M722.23,498.49v-6.24h1.13v6.24Zm7.39-6.24h1.17v3.63a7.68,7.68,0,0,1-1.62,5.34,8.46,8.46,0,0,1-5.27,2.27l-.24-1q3.32-.49,4.64-1.95a6.7,6.7,0,0,0,1.32-4.6Z"/><path class="cls-5" d="M736.29,493.64v-1h8.78v1a14.9,14.9,0,0,1-3.06,4.63q2.06,1.91,4.22,4.17l-.76.74q-2.07-2.19-4.2-4.17a23.41,23.41,0,0,1-5.72,4l-.48-.91a22.87,22.87,0,0,0,5.44-3.83,15.12,15.12,0,0,0,3.37-4.63Z"/><path class="cls-5" d="M751,496.5l1,.37q-1.11,2.5-2.43,4.89l-1-.44C749.45,499.75,750.24,498.15,751,496.5Zm-2-2.72h5.34v-2.24h1.14v2.24h3.2a1.85,1.85,0,1,1,3.18-1.27,1.85,1.85,0,0,1-.37,1.11,1.87,1.87,0,0,1-.95.66v.49h-5.06v6.84a2.31,2.31,0,0,1-.28,1.39,1.93,1.93,0,0,1-1.32.31,15.27,15.27,0,0,1-2.24-.2l.11-1a12.07,12.07,0,0,0,1.91.17c.32,0,.51,0,.58-.12a1.42,1.42,0,0,0,.1-.72v-6.69h-5.34Zm8.51,3.09,1-.42q1.3,2.46,2.43,5l-1,.42C759,500,758.19,498.3,757.45,496.87Zm3.23-3.63a1,1,0,0,0,.31-.73,1.06,1.06,0,0,0-1-1,1,1,0,0,0-1,1,1,1,0,0,0,1,1A1,1,0,0,0,760.68,493.24Z"/><path class="cls-5" d="M763.26,498.22v-1.08h11.53v1.08Z"/><path class="cls-5" d="M778.19,493.41l.51-1c1.52.76,3,1.56,4.34,2.41l-.55,1C781.19,495,779.75,494.21,778.19,493.41Zm11,.56q-1.42,8.16-10.47,8.95l-.17-1.06a11.45,11.45,0,0,0,6.52-2.39,9.54,9.54,0,0,0,3.09-5.73Z"/><path class="cls-5" d="M685.1,526a8.37,8.37,0,0,1,0-7.1,8.43,8.43,0,0,1,2.28-2.9h1.09a8.29,8.29,0,0,0,0,12.9h-1.09A8.43,8.43,0,0,1,685.1,526Z"/><path class="cls-5" d="M692.79,517.71h8.09l-.69,8.56h2.9v1H691.27v-1H699l.64-7.57h-6.83Z"/><path class="cls-5" d="M705.59,523v-1.08h11.53V523Z"/><path class="cls-5" d="M719.11,519.27h2.41v-2.56h1.06v2.56h5v-2.56h1.11v2.56h2.73v1h-2.73v.9c0,2.37-.5,4.07-1.48,5.11s-2.71,1.69-5.17,1.92l-.2-1a12,12,0,0,0,2.77-.54,4.2,4.2,0,0,0,1.75-1.08,3.9,3.9,0,0,0,.95-1.77,10.8,10.8,0,0,0,.27-2.65v-.9h-5v3.21h-1.06v-3.21h-2.41Zm9.76-3.19.83-.29c.37.83.69,1.58.94,2.23l-.83.27C729.6,517.73,729.29,517,728.87,516.08Zm1.75-.25.83-.28c.42.93.74,1.69,1,2.28l-.85.26C731.24,517.23,730.92,516.48,730.62,515.83Z"/><path class="cls-5" d="M733.93,523v-1.08h11.54V523Z"/><path class="cls-5" d="M751.78,518.93a8.37,8.37,0,0,1,0,7.1,8.52,8.52,0,0,1-2.27,2.9h-1.09a8.31,8.31,0,0,0,0-12.9h1.09A8.52,8.52,0,0,1,751.78,518.93Z"/><line class="cls-15" x1="636.45" y1="390.52" x2="589.48" y2="390.52"/><polygon class="cls-16" points="595.13 385.71 590.32 390.52 595.13 395.32 591.05 395.32 586.24 390.52 591.05 385.71 595.13 385.71"/><line class="cls-15" x1="630.36" y1="500.69" x2="586.24" y2="452.41"/><polygon class="cls-16" points="630.1 493.28 629.79 500.07 623 499.76 625.75 502.77 632.54 503.08 632.85 496.29 630.1 493.28"/><text class="cls-17" transform="translate(50.9 538.31)"><tspan class="cls-18">S</tspan><tspan class="cls-19" x="22.12" y="0">S</tspan><tspan x="44.6" y="0">G</tspan></text><rect class="cls-20" x="34.74" y="493.56" width="103.98" height="63.11"/><path class="cls-1" d="M70.16,518.07a16.14,16.14,0,0,0-7.23-1.7,4.76,4.76,0,0,0-2.85.72,2.33,2.33,0,0,0-1,1.95c0,1.35,1,2.32,3,2.9,3.59,1,6.11,2.17,7.57,3.54a7.74,7.74,0,0,1-.42,11.17c-1.73,1.35-4.3,2-7.69,2a17.17,17.17,0,0,1-4.74-.7,14.42,14.42,0,0,1-4.12-1.83l1.45-4.81a13.31,13.31,0,0,0,7.66,2.53,4.49,4.49,0,0,0,2.84-.77,2.68,2.68,0,0,0,1-2.19,2.47,2.47,0,0,0-.77-1.88,7.2,7.2,0,0,0-2.73-1.3c-3.3-1-5.68-2.14-7.12-3.53A6.82,6.82,0,0,1,52.85,519a6.57,6.57,0,0,1,2.58-5.45q2.58-2,7.25-2a19.79,19.79,0,0,1,8.6,1.74Z"/><path class="cls-1" d="M92.28,518.07a16.14,16.14,0,0,0-7.23-1.7,4.81,4.81,0,0,0-2.86.72,2.32,2.32,0,0,0-1,1.95c0,1.35,1,2.32,3,2.9,3.59,1,6.11,2.17,7.57,3.54a7.74,7.74,0,0,1-.42,11.17q-2.59,2-7.7,2A17.1,17.1,0,0,1,79,538a14.42,14.42,0,0,1-4.12-1.83l1.44-4.81A13.34,13.34,0,0,0,84,533.86a4.46,4.46,0,0,0,2.83-.77,2.66,2.66,0,0,0,1-2.19A2.44,2.44,0,0,0,87,529a7.06,7.06,0,0,0-2.72-1.3q-5-1.44-7.12-3.53A6.82,6.82,0,0,1,75,519a6.57,6.57,0,0,1,2.58-5.45q2.58-2,7.25-2a19.79,19.79,0,0,1,8.6,1.74Z"/><path class="cls-1" d="M111.51,516.44a8.58,8.58,0,0,0-6.37,2.3,8.68,8.68,0,0,0-2.27,6.38,8.52,8.52,0,0,0,2.36,6.36,8.75,8.75,0,0,0,6.38,2.31,9.49,9.49,0,0,0,3.26-.54v-6.33h-6.4v-4.66h12.25v14.53a24.59,24.59,0,0,1-9.72,1.88q-6.59,0-10.48-3.67a12.92,12.92,0,0,1-3.91-9.88q0-6.3,3.8-9.92t10.48-3.64a15.63,15.63,0,0,1,8.75,2.42l-1.74,4.41A12.39,12.39,0,0,0,111.51,516.44Z"/><text class="cls-2" transform="translate(228.23 68.34)">コード変更<tspan class="cls-6" x="5.17" y="24.8">(</tspan><tspan x="14.17" y="24.8">管理</tspan><tspan class="cls-21" x="42.52" y="24.8">者</tspan><tspan x="60.24" y="24.8">)</tspan></text><rect class="cls-9" x="212.31" y="38.61" width="103.96" height="74.52"/><path class="cls-5" d="M230.31,58.46h9.92V68h-9.92V67h8.83V59.45h-8.83Z"/><path class="cls-5" d="M243.72,63.78V62.7h11.54v1.08Z"/><path class="cls-5" d="M261.07,57.61v4.14A66.31,66.31,0,0,1,269,64.19l-.35,1a65.52,65.52,0,0,0-7.57-2.36v6.29h-1.14V57.61Zm3.16.78.92-.48c.48.79,1,1.64,1.45,2.55l-.93.45C265.3,60.21,264.81,59.36,264.23,58.39Zm2.1-.59.92-.5c.53.86,1,1.72,1.48,2.58l-.93.47Q267.2,59.24,266.33,57.8Z"/><path class="cls-5" d="M272.38,63.21l-.84-.64A8.75,8.75,0,0,0,274,59.44l1,.38A8.63,8.63,0,0,1,272.38,63.21Zm2.45,2.45.75-.73a11,11,0,0,0,2.54,1.72,9.44,9.44,0,0,0,2.65-1.88h-5.43a15.65,15.65,0,0,1-3.27,1.79l-.49-.83a12.19,12.19,0,0,0,4.64-3l.85.46c-.18.2-.4.43-.67.68h5.71v.87a9.43,9.43,0,0,1-2.9,2.38A18.62,18.62,0,0,0,284,68.38l-.25,1a19.42,19.42,0,0,1-5.65-1.64,22.45,22.45,0,0,1-6.17,1.64l-.24-1a21,21,0,0,0,5.3-1.22A10.51,10.51,0,0,1,274.83,65.66Zm3.6-3.63a.86.86,0,0,0,.47-.07.94.94,0,0,0,.07-.48V58.77h-1.79a5.39,5.39,0,0,1-2.48,4.67l-.79-.68a5.4,5.4,0,0,0,1.66-1.69,5.18,5.18,0,0,0,.58-2.3h-4.38v-.92h5.5V56.61h1.13v1.24h5.5v.92H280v2.67a2.21,2.21,0,0,1-.22,1.26,1.46,1.46,0,0,1-1.05.26c-.24,0-.79,0-1.66-.08L277,62C277.77,62,278.23,62,278.43,62ZM280.51,60l.85-.55a18.11,18.11,0,0,1,2.78,3.18l-.88.55A18.82,18.82,0,0,0,280.51,60Z"/><path class="cls-5" d="M287.94,65.48l.78-.65a8.53,8.53,0,0,0,1.76,1.47,4.62,4.62,0,0,0,.76-1.67h-4.31V59.38h4.58v-1.1h-5.7v-.9H298.2v.9h-5.56v1.1h4.44v6.15H296v-.9h-3.64a5.51,5.51,0,0,1-1,2.19,16.34,16.34,0,0,0,6.86,1.49l-.15,1a17,17,0,0,1-7.39-1.74A9.3,9.3,0,0,1,286,69.29l-.24-1a9.24,9.24,0,0,0,4-1.35A9.59,9.59,0,0,1,287.94,65.48Zm.06-3.93h3.51V60.23H288Zm0,2.23h3.4a13.6,13.6,0,0,0,.11-1.41H288Zm4.63-1.41c0,.54-.05,1-.1,1.41H296V62.37Zm0-.82H296V60.23h-3.38Z"/><path class="cls-5" d="M235.1,92.24a9.28,9.28,0,0,1,0-7.12,8.5,8.5,0,0,1,2-2.89h1.08a9,9,0,0,0,0,12.9h-1.08A8.5,8.5,0,0,1,235.1,92.24Z"/><path class="cls-5" d="M243,84.3a8,8,0,0,0,2.26-3l1,.24a6.91,6.91,0,0,1-.41.88h3.77v.92h-2.38c.18.45.36.92.55,1.43l-1,.32c-.26-.72-.49-1.3-.68-1.75h-.82A9,9,0,0,1,243.72,85Zm6.24-.47a6.86,6.86,0,0,0,2.31-2.55l1,.24a5.25,5.25,0,0,1-.48.88h3.75v.92H253.3c.18.45.36.92.55,1.43l-1,.32c-.36-1-.58-1.54-.67-1.75h-.8a7.55,7.55,0,0,1-1.27,1.15v.84h5.55v2.77h-1.08V86.17H244.43v1.91h-1.08V85.31H249v-.93h.81Zm-2.82,9.92v.63h-1.12v-7.5h8.36v2.93H246.4v.81h8v3.76h-1.11v-.63Zm0-4.79h6.14v-1.2H246.4Zm0,3.94h6.94V91.49H246.4Z"/><path class="cls-5" d="M261,90.69l.14.94a38.54,38.54,0,0,1-4,1.46l-.14-1c.68-.21,1.19-.38,1.54-.5v-4h-1.34v-1h1.34V83.48h-1.49v-1H261v1h-1.29v3.24h1.22v1h-1.22v3.55C260.17,91.06,260.62,90.87,261,90.69Zm5.06-2.22v1.7h3.75v.88H266.1V93h4v.93h-9.44V93H265V91.05h-3.55v-.88H265v-1.7h-3.5V82.05h8.1v6.42Zm-3.53-3.66H265V82.94h-2.44ZM265,87.59v-2h-2.44v2Zm1.09-2.78h2.45V82.94H266.1Zm0,2.78h2.45v-2H266.1Z"/><path class="cls-5" d="M277,87.93h6v6.35H281.9v-.61h-6.72v.61h-1.1v-5c-.79.33-1.59.62-2.43.88l-.34-1a26.69,26.69,0,0,0,6.18-2.68h-6.13V85.6h5.38V83.75h-4.05v-.91h4.05V81.49h1.14v1.35h3.5v.75A14.82,14.82,0,0,0,282.84,82l.82.6a18.09,18.09,0,0,1-3.12,3h3.77v.92h-5A25.22,25.22,0,0,1,277,87.93Zm-1.79,2.41h6.72V88.85h-6.72Zm0,.86v1.56h6.72V91.2Zm6-7.45h-3.34V85.6h1.05A20.35,20.35,0,0,0,281.22,83.75Z"/><path class="cls-5" d="M292.22,85.12a9.28,9.28,0,0,1,0,7.12,8.36,8.36,0,0,1-2,2.89H289.1a9,9,0,0,0,0-12.9h1.08A8.36,8.36,0,0,1,292.22,85.12Z"/></g></g></svg>