<svg width="18" height="19" viewBox="0 0 18 19" fill="none" xmlns="http://www.w3.org/2000/svg">
<path fill-rule="evenodd" clip-rule="evenodd" d="M11.3851 12.9457C8.73488 15.0684 4.85544 14.9013 2.39866 12.4445C-0.237379 9.8085 -0.237379 5.53464 2.39866 2.8986C5.0347 0.26256 9.30856 0.26256 11.9446 2.8986C14.4014 5.35538 14.5685 9.23481 12.4458 11.8851L17.6014 17.0407C17.8943 17.3336 17.8943 17.8085 17.6014 18.1014C17.3085 18.3943 16.8337 18.3943 16.5408 18.1014L11.3851 12.9457ZM3.45932 11.3839C1.40907 9.33363 1.40907 6.00951 3.45932 3.95926C5.50957 1.90901 8.83369 1.90901 10.8839 3.95926C12.9327 6.00801 12.9342 9.32875 10.8885 11.3794C10.8869 11.3809 10.8854 11.3823 10.8839 11.3839C10.8824 11.3854 10.8809 11.3869 10.8794 11.3884C8.82882 13.4341 5.50807 13.4326 3.45932 11.3839Z" fill="#666666"/>
</svg>
